<svg width="26" height="43" viewBox="0 0 26 43" fill="none" xmlns="http://www.w3.org/2000/svg">
<path d="M22.8874 38.4922L23.2594 37.3642L22.3594 36.7522H23.4754L23.8714 35.5522L24.2674 36.7522H25.3834L24.4834 37.3642L24.8554 38.4922L23.8714 37.7842L22.8874 38.4922Z" fill="#B09D90"/>
<path d="M17.9914 38.564C18.3274 38.564 18.6314 38.648 18.9034 38.816C19.1834 38.976 19.4034 39.196 19.5634 39.476C19.7314 39.748 19.8154 40.052 19.8154 40.388C19.8154 40.724 19.7314 41.032 19.5634 41.312C19.4034 41.584 19.1834 41.804 18.9034 41.972C18.6314 42.14 18.3274 42.224 17.9914 42.224C17.6554 42.224 17.3474 42.14 17.0674 41.972C16.7954 41.804 16.5754 41.584 16.4074 41.312C16.2394 41.032 16.1554 40.724 16.1554 40.388C16.1554 40.052 16.2394 39.748 16.4074 39.476C16.5754 39.196 16.7954 38.976 17.0674 38.816C17.3474 38.648 17.6554 38.564 17.9914 38.564ZM17.9914 41.612C18.3274 41.612 18.6114 41.496 18.8434 41.264C19.0834 41.024 19.2034 40.732 19.2034 40.388C19.2034 40.172 19.1474 39.972 19.0354 39.788C18.9314 39.604 18.7874 39.456 18.6034 39.344C18.4194 39.232 18.2154 39.176 17.9914 39.176C17.7674 39.176 17.5634 39.232 17.3794 39.344C17.1954 39.456 17.0474 39.604 16.9354 39.788C16.8234 39.972 16.7674 40.172 16.7674 40.388C16.7674 40.612 16.8234 40.82 16.9354 41.012C17.0474 41.196 17.1954 41.344 17.3794 41.456C17.5634 41.56 17.7674 41.612 17.9914 41.612Z" fill="#B09D90"/>
<path d="M15.4366 32C15.7246 32 15.9686 32.088 16.1686 32.264C16.3686 32.432 16.4686 32.664 16.4686 32.96C16.4686 33.184 16.4046 33.392 16.2766 33.584C16.1566 33.768 15.9926 33.916 15.7846 34.028C15.5846 34.14 15.3646 34.196 15.1246 34.196C14.8446 34.196 14.6086 34.112 14.4166 33.944C14.2246 33.768 14.1286 33.532 14.1286 33.236C14.1286 33.004 14.1886 32.796 14.3086 32.612C14.4286 32.42 14.5846 32.272 14.7766 32.168C14.9766 32.056 15.1966 32 15.4366 32ZM15.1726 33.944C15.3406 33.944 15.5006 33.9 15.6526 33.812C15.8046 33.724 15.9246 33.608 16.0126 33.464C16.1086 33.312 16.1566 33.14 16.1566 32.948C16.1566 32.716 16.0726 32.544 15.9046 32.432C15.7446 32.312 15.5726 32.252 15.3886 32.252C15.1406 32.252 14.9206 32.352 14.7286 32.552C14.5366 32.744 14.4406 32.968 14.4406 33.224C14.4406 33.464 14.5166 33.644 14.6686 33.764C14.8286 33.884 14.9966 33.944 15.1726 33.944Z" fill="#B09D90"/>
<path d="M6.05925 38.4922L6.43125 37.3642L5.53125 36.7522H6.64725L7.04325 35.5522L7.43925 36.7522H8.55525L7.65525 37.3642L8.02725 38.4922L7.04325 37.7842L6.05925 38.4922Z" fill="#B09D90"/>
<path d="M14.5205 25.4923C14.4165 25.2283 14.3085 24.9843 14.1965 24.7603C14.0925 24.5283 13.9605 24.2803 13.8005 24.0163C13.6405 23.7523 13.4405 23.4443 13.2005 23.0923C12.9605 22.7403 12.6565 22.3123 12.2885 21.8083C11.8165 21.1603 11.4805 20.6043 11.2805 20.1403C11.0805 19.6763 10.9805 19.2243 10.9805 18.7843C10.9805 18.4323 11.0685 18.1123 11.2445 17.8243C11.4285 17.5283 11.6685 17.2963 11.9645 17.1283C12.2685 16.9523 12.5965 16.8643 12.9485 16.8643C13.3245 16.8643 13.6725 16.9603 13.9925 17.1523C14.3205 17.3443 14.5885 17.6363 14.7965 18.0283C15.0125 17.6363 15.2845 17.3443 15.6125 17.1523C15.9405 16.9603 16.2925 16.8643 16.6685 16.8643C17.0125 16.8643 17.3325 16.9523 17.6285 17.1283C17.9325 17.2963 18.1765 17.5283 18.3605 17.8243C18.5445 18.1123 18.6365 18.4323 18.6365 18.7843C18.6365 19.0643 18.5965 19.3523 18.5165 19.6483C18.4445 19.9363 18.3125 20.2563 18.1205 20.6083C17.9285 20.9523 17.6645 21.3563 17.3285 21.8203C16.9605 22.3323 16.6525 22.7683 16.4045 23.1283C16.1565 23.4803 15.9525 23.7883 15.7925 24.0523C15.6405 24.3163 15.5085 24.5603 15.3965 24.7843C15.2845 25.0083 15.1805 25.2443 15.0845 25.4923H14.5205ZM14.7965 24.4483C14.9485 24.1443 15.1525 23.7923 15.4085 23.3923C15.6725 22.9923 15.9805 22.5483 16.3325 22.0603C16.6845 21.5723 16.9725 21.1523 17.1965 20.8003C17.4205 20.4483 17.5805 20.1683 17.6765 19.9603C17.8685 19.5363 17.9645 19.1443 17.9645 18.7843C17.9645 18.5523 17.9045 18.3443 17.7845 18.1603C17.6645 17.9683 17.5045 17.8163 17.3045 17.7043C17.1125 17.5923 16.9005 17.5363 16.6685 17.5363C16.3245 17.5363 16.0125 17.6803 15.7325 17.9683C15.4525 18.2483 15.2445 18.6363 15.1085 19.1323H14.4965C14.3445 18.5883 14.1285 18.1883 13.8485 17.9323C13.5765 17.6683 13.2765 17.5363 12.9485 17.5363C12.7245 17.5363 12.5125 17.5923 12.3125 17.7043C12.1125 17.8163 11.9525 17.9683 11.8325 18.1603C11.7125 18.3443 11.6525 18.5523 11.6525 18.7843C11.6525 19.1203 11.7445 19.5043 11.9285 19.9363C12.1045 20.3443 12.5445 21.0283 13.2485 21.9883C13.6005 22.4523 13.9045 22.8923 14.1605 23.3083C14.4165 23.7163 14.6285 24.0963 14.7965 24.4483Z" fill="#B09D90"/>
<path d="M0.528 22.4922L0.9 21.3642L0 20.7522H1.116L1.512 19.5522L1.908 20.7522H3.024L2.124 21.3642L2.496 22.4922L1.512 21.7842L0.528 22.4922Z" fill="#B09D90"/>
<path d="M22.2336 6.56396C22.5696 6.56396 22.8736 6.64797 23.1456 6.81597C23.4256 6.97597 23.6456 7.19597 23.8056 7.47597C23.9736 7.74797 24.0576 8.05197 24.0576 8.38797C24.0576 8.72397 23.9736 9.03197 23.8056 9.31196C23.6456 9.58397 23.4256 9.80397 23.1456 9.97197C22.8736 10.14 22.5696 10.224 22.2336 10.224C21.8976 10.224 21.5896 10.14 21.3096 9.97197C21.0376 9.80397 20.8176 9.58397 20.6496 9.31196C20.4816 9.03197 20.3976 8.72397 20.3976 8.38797C20.3976 8.05197 20.4816 7.74797 20.6496 7.47597C20.8176 7.19597 21.0376 6.97597 21.3096 6.81597C21.5896 6.64797 21.8976 6.56396 22.2336 6.56396ZM22.2336 9.61197C22.5696 9.61197 22.8536 9.49597 23.0856 9.26397C23.3256 9.02397 23.4456 8.73197 23.4456 8.38797C23.4456 8.17197 23.3896 7.97196 23.2776 7.78796C23.1736 7.60396 23.0296 7.45597 22.8456 7.34397C22.6616 7.23197 22.4576 7.17597 22.2336 7.17597C22.0096 7.17597 21.8056 7.23197 21.6216 7.34397C21.4376 7.45597 21.2896 7.60396 21.1776 7.78796C21.0656 7.97196 21.0096 8.17197 21.0096 8.38797C21.0096 8.61197 21.0656 8.81996 21.1776 9.01196C21.2896 9.19596 21.4376 9.34397 21.6216 9.45597C21.8056 9.55997 22.0096 9.61197 22.2336 9.61197Z" fill="#B09D90"/>
<path d="M19.6788 0C19.9668 0 20.2108 0.0879998 20.4108 0.263999C20.6108 0.432 20.7108 0.664 20.7108 0.96C20.7108 1.184 20.6468 1.392 20.5188 1.584C20.3988 1.768 20.2348 1.916 20.0268 2.028C19.8268 2.14 19.6068 2.196 19.3668 2.196C19.0868 2.196 18.8508 2.112 18.6588 1.944C18.4668 1.768 18.3708 1.532 18.3708 1.236C18.3708 1.004 18.4308 0.796 18.5508 0.612C18.6708 0.42 18.8268 0.272 19.0188 0.168C19.2188 0.056 19.4388 0 19.6788 0ZM19.4148 1.944C19.5828 1.944 19.7428 1.9 19.8948 1.812C20.0468 1.724 20.1668 1.608 20.2548 1.464C20.3508 1.312 20.3988 1.14 20.3988 0.948C20.3988 0.716 20.3148 0.543999 20.1468 0.431999C19.9868 0.312 19.8148 0.252 19.6308 0.252C19.3828 0.252 19.1628 0.352 18.9708 0.552C18.7788 0.744 18.6828 0.968 18.6828 1.224C18.6828 1.464 18.7588 1.644 18.9108 1.764C19.0708 1.884 19.2388 1.944 19.4148 1.944Z" fill="#B09D90"/>
<path d="M10.3014 6.49225L10.6734 5.36425L9.77344 4.75225H10.8894L11.2854 3.55225L11.6814 4.75225H12.7974L11.8974 5.36425L12.2694 6.49225L11.2854 5.78425L10.3014 6.49225Z" fill="#B09D90"/>
</svg>
