<svg width="129" height="129" viewBox="0 0 129 129" fill="none" xmlns="http://www.w3.org/2000/svg">
<g clip-path="url(#clip0_286_146)">
<path d="M55.9094 117.563C56.103 117.594 56.2335 117.786 56.2005 117.991C56.1674 118.195 55.9833 118.335 55.7898 118.304L55.694 118.288C55.5005 118.257 55.3704 118.065 55.4039 117.861C55.4374 117.656 55.622 117.516 55.8155 117.548L55.9094 117.563ZM53.0169 116.97C53.2072 117.018 53.3224 117.22 53.2742 117.421C53.2259 117.622 53.0323 117.747 52.8419 117.7C52.8107 117.692 52.7795 117.685 52.7483 117.677C52.5581 117.629 52.4433 117.427 52.4921 117.225C52.5409 117.024 52.7349 116.899 52.9251 116.947C52.9557 116.955 52.9863 116.962 53.0169 116.97ZM58.8418 117.911C59.0372 117.926 59.181 118.106 59.1634 118.312C59.1459 118.518 58.9737 118.674 58.7782 118.659C58.7459 118.657 58.7134 118.654 58.6811 118.651C58.4856 118.636 58.3416 118.456 58.3596 118.249C58.3778 118.043 58.5512 117.888 58.7466 117.903C58.7782 117.906 58.8102 117.909 58.8418 117.911ZM50.0956 116.105C50.1256 116.115 50.1562 116.125 50.1862 116.136C50.3718 116.199 50.4706 116.41 50.4073 116.607C50.3439 116.804 50.1416 116.913 49.9557 116.85C49.9252 116.839 49.8949 116.828 49.8644 116.818C49.6788 116.754 49.5806 116.543 49.6442 116.346C49.7081 116.15 49.91 116.041 50.0956 116.105ZM61.7913 118.01C61.9876 118.009 62.1456 118.176 62.1438 118.383C62.1417 118.589 61.9807 118.758 61.7845 118.76C61.7523 118.76 61.7201 118.761 61.6879 118.761C61.4915 118.762 61.3341 118.595 61.3364 118.388C61.3389 118.181 61.5003 118.012 61.6966 118.011C61.7282 118.011 61.7597 118.011 61.7913 118.01ZM47.344 115.026C47.3732 115.039 47.4022 115.052 47.4314 115.065C47.6114 115.144 47.6946 115.363 47.6169 115.554C47.5389 115.745 47.3292 115.837 47.1491 115.758C47.1194 115.745 47.0896 115.732 47.0599 115.719C46.8801 115.639 46.7973 115.42 46.8754 115.229C46.9539 115.038 47.164 114.947 47.344 115.026ZM64.7429 117.86C64.9388 117.842 65.1091 117.995 65.1229 118.202C65.1365 118.407 64.9892 118.589 64.7937 118.607C64.7613 118.61 64.7281 118.613 64.6958 118.616C64.5 118.633 64.331 118.48 64.3177 118.274C64.3046 118.068 64.452 117.887 64.6477 117.87C64.6794 117.867 64.7112 117.863 64.7429 117.86ZM44.2031 113.882C44.2955 113.698 44.5108 113.625 44.684 113.719C44.712 113.734 44.7404 113.749 44.7684 113.764C44.9419 113.858 45.0078 114.084 44.9158 114.268C44.8238 114.453 44.6091 114.526 44.4357 114.433C44.4071 114.417 44.3782 114.402 44.3496 114.386C44.1764 114.292 44.1108 114.066 44.2031 113.882ZM67.6802 117.465C67.8743 117.43 68.0552 117.568 68.0844 117.772C68.1136 117.976 67.9798 118.169 67.7856 118.204C67.7538 118.209 67.722 118.215 67.6901 118.221C67.4959 118.255 67.3148 118.116 67.286 117.912C67.2573 117.708 67.3915 117.515 67.5857 117.481C67.6172 117.475 67.6487 117.47 67.6802 117.465ZM41.6419 112.318C41.7474 112.142 41.9676 112.086 42.1332 112.194C42.16 112.212 42.1868 112.229 42.2136 112.247C42.3794 112.355 42.4288 112.585 42.3237 112.762C42.2186 112.939 41.999 112.995 41.8331 112.887C41.8059 112.869 41.7782 112.852 41.7509 112.834C41.5854 112.726 41.5365 112.495 41.6419 112.318ZM70.5826 116.829C70.7739 116.779 70.9651 116.901 71.0092 117.102C71.0533 117.303 70.9336 117.507 70.7423 117.557C70.711 117.565 70.6797 117.573 70.6484 117.581C70.457 117.63 70.2656 117.507 70.2219 117.306C70.1784 117.106 70.2984 116.903 70.4896 116.853C70.5205 116.845 70.5517 116.837 70.5826 116.829ZM39.2047 110.551C39.3224 110.383 39.5456 110.346 39.7027 110.467C39.7281 110.486 39.7538 110.506 39.7792 110.526C39.9365 110.646 39.9687 110.88 39.8515 111.048C39.7342 111.216 39.5116 111.255 39.3541 111.135C39.3283 111.115 39.3026 111.094 39.2768 111.074C39.1196 110.953 39.087 110.719 39.2047 110.551ZM73.4355 115.962C73.6228 115.897 73.8225 116.003 73.881 116.2C73.9394 116.396 73.8348 116.608 73.6475 116.673C73.6166 116.684 73.585 116.695 73.5541 116.706C73.3667 116.77 73.1677 116.662 73.1098 116.466C73.052 116.269 73.1575 116.058 73.345 115.993C73.3752 115.983 73.4053 115.972 73.4355 115.962ZM36.9017 108.598C37.0306 108.439 37.2556 108.418 37.4038 108.552C37.4276 108.573 37.4518 108.594 37.4757 108.616C37.624 108.748 37.6399 108.985 37.5116 109.143C37.3831 109.302 37.1588 109.323 37.0103 109.19C36.9859 109.169 36.9611 109.147 36.9367 109.125C36.7886 108.992 36.7731 108.756 36.9017 108.598ZM76.2238 114.875C76.4065 114.796 76.6125 114.887 76.6845 115.078C76.7563 115.269 76.6666 115.488 76.484 115.567C76.4541 115.58 76.4242 115.593 76.3943 115.606C76.2115 115.685 76.0045 115.593 75.9329 115.402C75.8616 115.211 75.9525 114.992 76.1352 114.913C76.1647 114.901 76.1943 114.888 76.2238 114.875ZM34.7395 106.47C34.8786 106.321 35.1043 106.318 35.2429 106.462C35.2653 106.485 35.2876 106.509 35.3101 106.532C35.4489 106.676 35.4488 106.913 35.3101 107.062C35.1713 107.211 34.9463 107.215 34.8074 107.071C34.7846 107.048 34.7612 107.024 34.7384 107.001C34.5998 106.857 34.6004 106.619 34.7395 106.47ZM78.9357 113.579C79.1128 113.487 79.3249 113.562 79.4096 113.747C79.4944 113.932 79.4196 114.158 79.2425 114.25C79.2133 114.265 79.1838 114.28 79.1546 114.295C78.9773 114.387 78.7652 114.312 78.6808 114.127C78.5965 113.942 78.6717 113.717 78.8487 113.625C78.8775 113.61 78.907 113.594 78.9357 113.579ZM32.7269 104.189C32.8751 104.051 33.0994 104.063 33.2281 104.217C33.2489 104.242 33.2701 104.267 33.2909 104.292C33.4198 104.445 33.4042 104.682 33.2563 104.821C33.1084 104.959 32.8839 104.948 32.7548 104.794C32.7336 104.769 32.7125 104.743 32.6914 104.718C32.5628 104.564 32.5787 104.327 32.7269 104.189ZM81.5574 112.09C81.7283 111.985 81.9459 112.044 82.0426 112.222C82.1392 112.4 82.0785 112.63 81.9077 112.735C81.8796 112.752 81.8514 112.77 81.8232 112.787C81.6522 112.892 81.4355 112.831 81.3393 112.653C81.243 112.475 81.3041 112.245 81.4751 112.141C81.5027 112.124 81.53 112.107 81.5574 112.09ZM30.8655 101.767C31.022 101.639 31.2452 101.667 31.3638 101.83C31.383 101.856 31.4021 101.883 31.4213 101.909C31.5402 102.071 31.5103 102.307 31.3543 102.435C31.1981 102.564 30.9747 102.536 30.8556 102.374C30.8361 102.347 30.8162 102.32 30.7967 102.293C30.6783 102.13 30.7091 101.895 30.8655 101.767ZM84.0832 110.418C84.2472 110.302 84.4672 110.345 84.575 110.516C84.6828 110.687 84.6374 110.92 84.4733 111.037C84.4463 111.056 84.4188 111.076 84.3918 111.095C84.2275 111.211 84.0078 111.166 83.9003 110.995C83.7928 110.824 83.8386 110.59 84.0029 110.474C84.0295 110.455 84.0567 110.437 84.0832 110.418ZM29.1586 99.2184C29.3224 99.1013 29.5431 99.145 29.6515 99.3155C29.6691 99.3432 29.6868 99.3708 29.7045 99.3984C29.8131 99.5687 29.7689 99.8023 29.6055 99.9199C29.4421 100.037 29.2212 99.9947 29.1124 99.8247C29.0945 99.7967 29.0767 99.7679 29.0588 99.7398C28.9504 99.5692 28.9949 99.3356 29.1586 99.2184ZM86.5037 108.577C86.6604 108.449 86.8836 108.478 87.0018 108.641C87.1199 108.804 87.0887 109.04 86.9321 109.167C86.9062 109.188 86.8802 109.21 86.8543 109.231C86.6972 109.358 86.4743 109.328 86.3564 109.164C86.2387 109.001 86.2701 108.765 86.4271 108.638C86.4526 108.618 86.4782 108.597 86.5037 108.577ZM27.61 96.5612C27.7801 96.4549 27.9977 96.5126 28.0958 96.6899C28.1117 96.7186 28.1276 96.7482 28.1435 96.7768C28.2415 96.954 28.1836 97.1836 28.014 97.2904C27.844 97.3971 27.6264 97.34 27.528 97.1627C27.5119 97.1337 27.4955 97.1047 27.4795 97.0756C27.3815 96.8981 27.4399 96.6676 27.61 96.5612ZM88.8116 106.58C88.9608 106.443 89.1855 106.458 89.3131 106.612C89.4407 106.767 89.423 107.004 89.2738 107.142C89.2493 107.164 89.2246 107.186 89.2001 107.209C89.0506 107.346 88.827 107.331 88.6996 107.176C88.5724 107.021 88.5897 106.785 88.7388 106.648C88.763 106.625 88.7874 106.602 88.8116 106.58ZM26.2195 93.807C26.3952 93.7116 26.609 93.7826 26.6967 93.9659C26.7109 93.9957 26.7249 94.0263 26.7392 94.056C26.8268 94.2392 26.7562 94.465 26.5811 94.561C26.4056 94.6568 26.1918 94.5862 26.1038 94.403C26.0893 94.3728 26.075 94.342 26.0606 94.3118C25.9732 94.1283 26.0441 93.9026 26.2195 93.807ZM91.0023 104.441C91.1435 104.295 91.3688 104.296 91.5051 104.442C91.6413 104.588 91.6376 104.825 91.4967 104.971C91.4735 104.995 91.4501 105.02 91.4268 105.044C91.2853 105.19 91.0602 105.189 90.9241 105.042C90.7881 104.896 90.7922 104.659 90.9334 104.513C90.9564 104.489 90.9793 104.465 91.0023 104.441ZM24.9875 90.9657C25.1681 90.8812 25.377 90.9657 25.4541 91.1546C25.4667 91.1853 25.479 91.2162 25.4916 91.2469C25.569 91.4356 25.4856 91.6573 25.3051 91.7422C25.1247 91.827 24.9157 91.743 24.8383 91.5543C24.8255 91.5232 24.8128 91.4921 24.8001 91.461C24.723 91.2721 24.8069 91.0503 24.9875 90.9657ZM93.0721 102.169C93.2051 102.015 93.4301 102.001 93.5746 102.138C93.719 102.276 93.7283 102.513 93.5952 102.667C93.5733 102.693 93.5514 102.718 93.5294 102.744C93.3961 102.898 93.1713 102.912 93.0271 102.774C92.883 102.636 92.8742 102.399 93.0074 102.245C93.029 102.22 93.0505 102.194 93.0721 102.169ZM23.9135 88.0512C24.0982 87.9775 24.3022 88.0755 24.3689 88.269C24.3796 88.3001 24.3907 88.3313 24.4015 88.3624C24.4684 88.5556 24.3732 88.7725 24.1887 88.8465C24.0043 88.9205 23.8001 88.8237 23.733 88.6307C23.722 88.599 23.7108 88.5669 23.6998 88.5352C23.6333 88.3419 23.729 88.1249 23.9135 88.0512ZM95.0164 99.7772C95.141 99.6149 95.3655 99.5868 95.5173 99.7152C95.6691 99.8437 95.691 100.08 95.5665 100.242C95.5461 100.269 95.5252 100.296 95.5047 100.322C95.3799 100.484 95.1565 100.511 95.005 100.382C94.8535 100.254 94.8313 100.017 94.9559 99.8555C94.976 99.8294 94.9964 99.8033 95.0164 99.7772ZM22.9989 85.0785C23.187 85.0157 23.3854 85.1247 23.4416 85.3219C23.4507 85.3538 23.46 85.3856 23.4692 85.4175C23.5257 85.6145 23.4193 85.8255 23.2314 85.8886C23.0434 85.9517 22.8451 85.8431 22.7884 85.6462C22.7791 85.6138 22.7695 85.5809 22.7603 85.5485C22.7043 85.3516 22.8111 85.1414 22.9989 85.0785ZM96.8303 97.2767C96.9463 97.1075 97.1689 97.0671 97.3274 97.1863C97.4857 97.3056 97.5203 97.5387 97.4046 97.7078C97.3856 97.7356 97.366 97.7638 97.347 97.7915C97.2307 97.9602 97.0082 98.0003 96.85 97.8808C96.692 97.7613 96.6579 97.5274 96.7739 97.3586C96.7927 97.3313 96.8116 97.3039 96.8303 97.2767ZM22.2419 82.0522C22.4326 82.0003 22.6242 82.12 22.6704 82.32C22.6778 82.3524 22.6854 82.3854 22.6929 82.4178C22.7391 82.618 22.6219 82.8228 22.4311 82.8751C22.2403 82.9272 22.0479 82.8073 22.0017 82.6071C21.9941 82.5743 21.9868 82.5413 21.9793 82.5084C21.9334 82.3081 22.051 82.1041 22.2419 82.0522ZM98.5137 94.6747C98.6209 94.4996 98.8406 94.447 99.005 94.5567C99.1696 94.6665 99.2164 94.8972 99.1093 95.0727C99.0917 95.1014 99.0744 95.1304 99.0568 95.1592C98.9495 95.3344 98.729 95.3871 98.5646 95.277C98.4003 95.1669 98.354 94.9354 98.4614 94.7602C98.4788 94.7318 98.4964 94.7031 98.5137 94.6747ZM21.6408 78.983C21.8338 78.9419 22.0193 79.0726 22.055 79.2753C22.0608 79.3082 22.0668 79.3413 22.0726 79.3742C22.1086 79.5769 21.981 79.7755 21.7879 79.8169C21.595 79.8582 21.4097 79.7273 21.3737 79.5247C21.3678 79.4913 21.3612 79.458 21.3553 79.4246C21.3197 79.2219 21.4478 79.0242 21.6408 78.983ZM100.063 91.9825C100.161 91.8015 100.378 91.7366 100.548 91.8368C100.718 91.9371 100.777 92.1651 100.679 92.3462C100.663 92.3759 100.647 92.4057 100.631 92.4354C100.532 92.6163 100.314 92.6815 100.144 92.5809C99.9745 92.4803 99.9164 92.2515 100.015 92.0707C100.031 92.0413 100.047 92.0119 100.063 91.9825ZM21.1959 75.8809C21.3904 75.8507 21.5686 75.9918 21.5942 76.1962C21.5983 76.2295 21.6027 76.2631 21.6069 76.2963C21.6325 76.501 21.4951 76.692 21.3005 76.7227C21.106 76.7532 20.9271 76.6117 20.9013 76.4071C20.8971 76.3736 20.8929 76.3396 20.8887 76.3061C20.8636 76.1015 21.0013 75.9112 21.1959 75.8809ZM101.476 89.2088C101.565 89.0228 101.78 88.9457 101.955 89.0362C102.13 89.1269 102.199 89.3509 102.11 89.5368C102.096 89.5674 102.081 89.5982 102.066 89.6287C101.977 89.8146 101.763 89.8921 101.588 89.8012C101.413 89.7103 101.344 89.4857 101.433 89.2998C101.448 89.2696 101.462 89.239 101.476 89.2088ZM20.9049 72.7592C21.1007 72.7395 21.2722 72.8908 21.2874 73.0968C21.2899 73.1301 21.292 73.1636 21.2946 73.197C21.3101 73.4029 21.1642 73.5862 20.9685 73.6062C20.7729 73.6262 20.6015 73.4755 20.5858 73.2696C20.5833 73.2359 20.5805 73.2021 20.578 73.1684C20.5627 72.9624 20.7093 72.7791 20.9049 72.7592ZM103.22 86.1681C103.399 86.2489 103.48 86.4693 103.4 86.6598C103.387 86.691 103.374 86.7222 103.361 86.7534C103.28 86.9436 103.07 87.0322 102.891 86.9511C102.712 86.87 102.632 86.6498 102.712 86.4595C102.724 86.4287 102.737 86.3976 102.75 86.3668C102.83 86.1763 103.04 86.0873 103.22 86.1681ZM20.7672 69.623C20.9635 69.6138 21.1272 69.7737 21.1324 69.9805C21.1333 70.0139 21.1339 70.0474 21.1348 70.0809C21.1404 70.2875 20.9862 70.4625 20.7901 70.4722C20.5938 70.4817 20.4294 70.3223 20.4238 70.1155C20.4229 70.0816 20.4226 70.0472 20.4218 70.0132C20.4167 69.8067 20.5711 69.6322 20.7672 69.623ZM104.345 83.2375C104.528 83.3084 104.62 83.5231 104.55 83.7174C104.538 83.7493 104.526 83.7817 104.514 83.8136C104.444 84.0078 104.238 84.107 104.055 84.0358C103.872 83.9645 103.78 83.7494 103.851 83.5551C103.863 83.5236 103.874 83.4921 103.885 83.4606C103.956 83.2663 104.162 83.1666 104.345 83.2375ZM20.7807 66.4786C20.9769 66.4799 21.1323 66.649 21.1277 66.856C21.1269 66.8895 21.126 66.9231 21.1253 66.9566C21.121 67.1635 20.9583 67.331 20.762 67.3301C20.5658 67.329 20.4106 67.1605 20.4148 66.9537C20.4156 66.9197 20.4158 66.8851 20.4166 66.851C20.4214 66.6442 20.5845 66.4774 20.7807 66.4786ZM105.329 80.2513C105.516 80.3124 105.618 80.5224 105.557 80.72C105.547 80.7526 105.537 80.7856 105.527 80.8181C105.465 81.0157 105.264 81.1261 105.077 81.0647C104.891 81.0033 104.789 80.7928 104.851 80.5952C104.861 80.5632 104.871 80.5311 104.881 80.499C104.942 80.3014 105.143 80.1905 105.329 80.2513ZM20.9427 63.3367C21.1385 63.3483 21.2862 63.5253 21.2718 63.7319C21.2694 63.7654 21.267 63.7993 21.2647 63.8328C21.2505 64.0391 21.0805 64.1977 20.8849 64.1867C20.689 64.1755 20.5417 63.9982 20.5558 63.7915C20.5581 63.7576 20.5597 63.7236 20.5621 63.6896C20.5765 63.4831 20.747 63.3254 20.9427 63.3367ZM106.172 77.2203C106.361 77.2716 106.473 77.4752 106.421 77.6757C106.413 77.7087 106.404 77.7417 106.396 77.7746C106.344 77.9749 106.148 78.0962 105.958 78.0449C105.769 77.9934 105.657 77.7888 105.709 77.5885C105.718 77.556 105.727 77.5233 105.736 77.4908C105.787 77.2903 105.983 77.1691 106.172 77.2203ZM21.2523 60.203C21.4472 60.2247 21.5858 60.409 21.5618 60.6148C21.5579 60.6482 21.554 60.6816 21.5502 60.7149C21.5265 60.9207 21.3496 61.0707 21.1548 61.0495C20.9598 61.0281 20.8206 60.8434 20.8443 60.6376C20.8482 60.6039 20.8522 60.5702 20.8561 60.5365C20.8801 60.3308 21.0575 60.1815 21.2523 60.203ZM106.872 74.1502C107.064 74.1915 107.185 74.3886 107.142 74.5913C107.135 74.6246 107.128 74.6585 107.121 74.6918C107.079 74.8944 106.889 75.0255 106.697 74.9841C106.506 74.9425 106.385 74.7439 106.427 74.5411C106.434 74.5083 106.441 74.4754 106.448 74.4425C106.491 74.2397 106.681 74.109 106.872 74.1502ZM21.2792 57.4995L21.2957 57.3982C21.3292 57.1939 21.513 57.0535 21.7064 57.085C21.8999 57.1166 22.0298 57.3088 21.9963 57.5134L21.98 57.6137C21.9467 57.8181 21.7628 57.9583 21.5693 57.927C21.3759 57.8955 21.2461 57.704 21.2792 57.4995ZM107.003 71.4637L107.02 71.3634C107.053 71.1588 107.237 71.0177 107.43 71.0491C107.624 71.0805 107.754 71.272 107.721 71.4766L107.704 71.5778C107.671 71.7824 107.487 71.9228 107.293 71.8911C107.1 71.8595 106.97 71.6681 107.003 71.4637ZM22.3034 53.9921C22.4949 54.0339 22.6151 54.2323 22.5723 54.4349C22.5654 54.468 22.5584 54.5014 22.5514 54.5345C22.5088 54.7371 22.3189 54.868 22.1273 54.8268C21.9358 54.7854 21.8149 54.5875 21.8574 54.3848C21.8644 54.3513 21.8713 54.3177 21.8784 54.2843C21.9212 54.0816 22.1118 53.9506 22.3034 53.9921ZM107.846 67.9267C108.041 67.9483 108.179 68.1328 108.155 68.3385C108.152 68.3725 108.147 68.4066 108.144 68.4405C108.119 68.6463 107.942 68.7957 107.747 68.774C107.553 68.7523 107.414 68.5679 107.438 68.3622C107.442 68.3286 107.446 68.2947 107.45 68.2612C107.473 68.0553 107.651 67.9053 107.846 67.9267ZM23.0422 50.9323C23.2312 50.984 23.3423 51.1882 23.2902 51.3885C23.2817 51.4211 23.2733 51.4538 23.2649 51.4864C23.213 51.6869 23.0168 51.8079 22.8275 51.7567C22.6383 51.7054 22.5267 51.5008 22.5786 51.3003C22.5871 51.2674 22.5964 51.2345 22.605 51.2017C22.6572 51.0013 22.853 50.8808 23.0422 50.9323ZM108.116 64.7905C108.311 64.8018 108.459 64.9782 108.445 65.1847C108.443 65.2186 108.44 65.2526 108.438 65.2865C108.423 65.4931 108.253 65.6518 108.057 65.6403C107.861 65.6287 107.714 65.4518 107.729 65.2453C107.731 65.2117 107.733 65.1778 107.735 65.1443C107.749 64.9376 107.92 64.7792 108.116 64.7905ZM23.9225 47.9123C24.1089 47.9738 24.2103 48.1833 24.1488 48.3809C24.1388 48.4129 24.129 48.445 24.1191 48.477C24.0578 48.6748 23.8569 48.7858 23.6704 48.7247C23.4838 48.6636 23.3819 48.4538 23.4431 48.256C23.4532 48.2236 23.4638 48.1915 23.4739 48.1591C23.5354 47.9615 23.736 47.851 23.9225 47.9123ZM108.238 61.647C108.434 61.6479 108.59 61.8165 108.586 62.0235C108.585 62.0573 108.584 62.0912 108.583 62.1251C108.579 62.332 108.415 62.4987 108.219 62.4974C108.023 62.496 107.867 62.327 107.872 62.1201C107.873 62.0866 107.874 62.053 107.874 62.0195C107.879 61.8126 108.041 61.6461 108.238 61.647ZM24.9457 44.9404C25.1286 45.0119 25.2192 45.2269 25.1485 45.421C25.1371 45.4524 25.1258 45.484 25.1144 45.5154C25.0439 45.7099 24.8378 45.8105 24.6546 45.7395C24.4713 45.6685 24.3803 45.4532 24.4509 45.2588C24.4624 45.2271 24.4735 45.1952 24.4851 45.1634C24.556 44.9691 24.7626 44.8691 24.9457 44.9404ZM108.211 58.504C108.407 58.4946 108.57 58.6548 108.576 58.8615C108.577 58.8953 108.578 58.9292 108.579 58.963C108.584 59.1697 108.429 59.3449 108.232 59.3541C108.036 59.3631 107.873 59.2023 107.867 58.9956C107.866 58.9622 107.866 58.9286 107.865 58.8952C107.859 58.6886 108.014 58.5135 108.211 58.504ZM26.1086 42.0259C26.2879 42.1071 26.3682 42.3271 26.288 42.5175C26.2752 42.5481 26.2625 42.5787 26.2497 42.6093C26.1699 42.7998 25.9593 42.8889 25.7799 42.808C25.6008 42.7272 25.5198 42.5076 25.5994 42.3172C25.6124 42.2861 25.6259 42.2548 25.639 42.2237C25.7191 42.0333 25.9293 41.9448 26.1086 42.0259ZM108.031 55.3708C108.227 55.3508 108.398 55.5014 108.414 55.7074C108.416 55.7411 108.419 55.775 108.422 55.8087C108.437 56.0146 108.29 56.1971 108.095 56.2168C107.899 56.2366 107.728 56.0853 107.712 55.8793C107.71 55.8462 107.708 55.8131 107.705 55.7801C107.689 55.5742 107.835 55.391 108.031 55.3708ZM26.9333 39.3474C27.0226 39.1616 27.2369 39.085 27.4118 39.1759C27.5867 39.2668 27.6564 39.4915 27.5671 39.6774C27.5527 39.7074 27.5378 39.7372 27.5235 39.7673C27.4345 39.9534 27.2207 40.0305 27.0457 39.94C26.8707 39.8494 26.8003 39.6253 26.8893 39.4393C26.9039 39.4087 26.9186 39.378 26.9333 39.3474ZM107.699 52.2544C107.894 52.2237 108.073 52.3643 108.098 52.5689C108.103 52.6026 108.107 52.6364 108.111 52.67C108.136 52.8746 107.999 53.0648 107.805 53.0954C107.61 53.1257 107.431 52.9846 107.406 52.7798C107.401 52.7467 107.398 52.713 107.394 52.6799C107.368 52.4754 107.505 52.2851 107.699 52.2544ZM28.3699 36.5409C28.4684 36.3603 28.6854 36.2957 28.8552 36.3962C29.0252 36.4967 29.0834 36.7245 28.985 36.9054C28.969 36.9348 28.9529 36.9642 28.9369 36.9936C28.8388 37.1747 28.6213 37.2405 28.4512 37.1402C28.2812 37.04 28.2227 36.8119 28.3206 36.6308C28.3368 36.601 28.3537 36.5707 28.3699 36.5409ZM107.212 49.1602C107.405 49.1187 107.591 49.2489 107.627 49.4516C107.633 49.485 107.638 49.519 107.644 49.5524C107.68 49.7552 107.552 49.9529 107.359 49.994C107.166 50.0349 106.98 49.9036 106.945 49.7008C106.939 49.6679 106.933 49.6349 106.927 49.6019C106.891 49.3993 107.019 49.2017 107.212 49.1602ZM29.9429 33.8169C30.0502 33.6418 30.2708 33.5892 30.4351 33.6991C30.5995 33.8092 30.6457 34.0407 30.5384 34.2159C30.5209 34.2443 30.5034 34.273 30.486 34.3014C30.3789 34.4767 30.1591 34.5301 29.9946 34.4204C29.83 34.3106 29.7833 34.0788 29.8904 33.9034C29.908 33.8746 29.9253 33.8457 29.9429 33.8169ZM106.569 46.101C106.759 46.0488 106.952 46.1688 106.998 46.3689C107.006 46.4018 107.013 46.4348 107.02 46.4676C107.066 46.668 106.949 46.8729 106.758 46.9248C106.567 46.9765 106.375 46.8562 106.329 46.6561C106.322 46.6235 106.314 46.5908 106.307 46.5583C106.261 46.3581 106.378 46.1532 106.569 46.101ZM31.6526 31.1855C31.7688 31.0166 31.9914 30.9758 32.1497 31.0952C32.308 31.2148 32.3419 31.4495 32.2257 31.6185C32.2069 31.6457 32.1879 31.6731 32.1692 31.7004C32.0533 31.8694 31.8306 31.9099 31.6721 31.7907C31.5138 31.6714 31.4793 31.4374 31.5951 31.2683C31.6141 31.2406 31.6336 31.2132 31.6526 31.1855ZM105.768 43.0875C105.956 43.0243 106.155 43.1338 106.211 43.3309C106.22 43.3632 106.23 43.3953 106.239 43.4276C106.296 43.6248 106.189 43.8358 106.001 43.8986C105.813 43.9613 105.614 43.8523 105.558 43.6552C105.549 43.6233 105.54 43.5914 105.53 43.5596C105.474 43.3625 105.58 43.1506 105.768 43.0875ZM33.4949 28.655C33.6197 28.4929 33.8439 28.4662 33.9955 28.5949C34.1468 28.7237 34.1685 28.9597 34.0437 29.1216C34.0236 29.1477 34.0032 29.1737 33.9832 29.1999C33.8586 29.362 33.6342 29.3893 33.4824 29.2609C33.3309 29.1323 33.3088 28.8962 33.4333 28.734C33.4536 28.7075 33.4745 28.6814 33.4949 28.655ZM104.812 40.1307C104.996 40.0568 105.2 40.1532 105.267 40.3463C105.278 40.3779 105.289 40.4093 105.3 40.4409C105.367 40.6342 105.271 40.8512 105.086 40.9249C104.902 40.9985 104.697 40.9015 104.631 40.7081C104.62 40.6769 104.609 40.6458 104.598 40.6147C104.531 40.4214 104.627 40.2047 104.812 40.1307ZM35.4703 26.2322C35.6036 26.0781 35.8285 26.0647 35.9726 26.2022C36.1168 26.34 36.1255 26.5777 35.9922 26.7321C35.9707 26.757 35.9491 26.7818 35.9276 26.8067C35.7946 26.9614 35.5696 26.9753 35.4252 26.8377C35.2809 26.7002 35.2715 26.4632 35.4045 26.3086C35.4264 26.2832 35.4484 26.2576 35.4703 26.2322ZM103.695 37.2339C103.875 37.1491 104.084 37.2334 104.161 37.4218C104.174 37.4527 104.187 37.4841 104.2 37.5151C104.277 37.704 104.193 37.9258 104.012 38.0103C103.832 38.0949 103.623 38.0103 103.546 37.8215C103.533 37.791 103.52 37.7606 103.508 37.7302C103.431 37.5414 103.514 37.3188 103.695 37.2339ZM37.5737 23.9333C37.7152 23.7872 37.9405 23.7874 38.0766 23.934C38.2124 24.0807 38.2076 24.318 38.0662 24.464C38.0433 24.4876 38.0204 24.5113 37.9975 24.535C37.8562 24.6813 37.6308 24.6816 37.4944 24.5352C37.3581 24.3889 37.3627 24.1514 37.5039 24.0051C37.5271 23.9811 37.5505 23.9573 37.5737 23.9333ZM102.42 34.4153C102.595 34.3195 102.809 34.3908 102.897 34.5742C102.911 34.6042 102.926 34.6344 102.94 34.6644C103.027 34.848 102.956 35.0746 102.78 35.17C102.604 35.2654 102.391 35.1937 102.303 35.0102C102.289 34.9804 102.275 34.9507 102.26 34.921C102.173 34.7376 102.244 34.5111 102.42 34.4153ZM39.7997 21.7672C39.9491 21.6303 40.1737 21.6452 40.301 21.8004C40.4282 21.9555 40.4102 22.1925 40.2608 22.3294C40.2366 22.3516 40.2123 22.3736 40.1882 22.3958C40.0389 22.533 39.8143 22.5185 39.6867 22.3636C39.5592 22.2087 39.5768 21.9716 39.726 21.8344C39.7504 21.8119 39.7752 21.7896 39.7997 21.7672ZM100.987 31.6858C101.157 31.5794 101.373 31.6363 101.472 31.8134C101.488 31.8424 101.504 31.8715 101.52 31.9005C101.618 32.078 101.56 32.3084 101.39 32.4149C101.22 32.5213 101.002 32.4637 100.904 32.2862C100.888 32.2575 100.872 32.2289 100.856 32.2002C100.758 32.0229 100.817 31.7926 100.987 31.6858ZM42.1462 19.7465C42.3033 19.6195 42.5264 19.6484 42.6442 19.8118C42.7619 19.9751 42.7296 20.2107 42.5727 20.3377C42.5471 20.3584 42.5215 20.3798 42.4959 20.4005C42.3391 20.5276 42.116 20.4983 41.9979 20.3352C41.8799 20.1721 41.9117 19.9364 42.0686 19.8091C42.0944 19.7881 42.1204 19.7674 42.1462 19.7465ZM99.3951 29.0563C99.5586 28.939 99.7795 28.9822 99.8881 29.1524C99.906 29.1804 99.924 29.2084 99.9419 29.2365C100.05 29.407 100.005 29.6405 99.8411 29.7577C99.6774 29.8748 99.4566 29.8311 99.3483 29.6605C99.3308 29.633 99.3128 29.6052 99.2953 29.5777C99.1868 29.4073 99.2317 29.1738 99.3951 29.0563ZM44.6078 17.8821C44.7722 17.7659 44.9929 17.81 45.1003 17.9812C45.2078 18.1524 45.1612 18.3857 44.9968 18.5019C44.9703 18.5207 44.9439 18.5395 44.9174 18.5583C44.7533 18.675 44.5326 18.6312 44.4247 18.4602C44.317 18.2893 44.3624 18.0558 44.5264 17.9392C44.5534 17.92 44.5808 17.9013 44.6078 17.8821ZM97.6464 26.5408C97.8026 26.4129 98.0251 26.4408 98.1439 26.603C98.1635 26.6297 98.1835 26.6562 98.2031 26.6829C98.3217 26.8456 98.2907 27.0814 98.1342 27.2093C97.9778 27.3372 97.7546 27.3087 97.6359 27.146C97.6168 27.1198 97.5976 27.0935 97.5785 27.0673C97.4595 26.9049 97.4902 26.669 97.6464 26.5408ZM47.1764 16.1897C47.3474 16.0851 47.5641 16.1447 47.6605 16.323C47.7568 16.5015 47.6965 16.732 47.5254 16.8366C47.4977 16.8535 47.4698 16.8704 47.4422 16.8874C47.2713 16.9923 47.0547 16.9324 46.958 16.7541C46.8613 16.5758 46.9212 16.3463 47.0921 16.2413C47.1202 16.224 47.1483 16.2069 47.1764 16.1897ZM95.7434 24.1555C95.8914 24.017 96.1158 24.0294 96.2448 24.1828C96.266 24.2079 96.2873 24.2332 96.3084 24.2585C96.437 24.4122 96.4217 24.649 96.2738 24.7875C96.1255 24.9259 95.9002 24.914 95.7715 24.7601C95.7508 24.7354 95.7303 24.7104 95.7096 24.6857C95.5805 24.5321 95.5954 24.2943 95.7434 24.1555ZM49.8452 14.6809C50.0225 14.5887 50.2344 14.6648 50.3188 14.8501C50.4031 15.0354 50.3281 15.2603 50.1508 15.3524C50.1222 15.3673 50.0935 15.3819 50.0649 15.3969C49.8878 15.4894 49.6749 15.4145 49.5901 15.2294C49.5056 15.0445 49.5804 14.8196 49.7571 14.7269C49.7864 14.7116 49.8159 14.6961 49.8452 14.6809ZM93.6895 21.915C93.8282 21.7661 94.0534 21.7613 94.1923 21.9049C94.2152 21.9286 94.2383 21.9527 94.2612 21.9765C94.3997 22.1205 94.3992 22.3574 94.2603 22.506C94.1212 22.6547 93.8964 22.6583 93.7578 22.5143C93.7353 22.4909 93.712 22.4681 93.6895 22.4447C93.5507 22.3011 93.551 22.064 93.6895 21.915ZM52.6063 13.3703C52.7891 13.2917 52.9953 13.3827 53.0668 13.574C53.1383 13.7652 53.0481 13.984 52.8655 14.063C52.8359 14.0757 52.8062 14.0892 52.7767 14.102C52.594 14.1812 52.3872 14.0902 52.3151 13.8991C52.2431 13.7079 52.333 13.4882 52.5157 13.409C52.5458 13.3959 52.5763 13.3832 52.6063 13.3703ZM91.4881 19.8327C91.6167 19.6739 91.8419 19.653 91.9903 19.7858C92.0146 19.8075 92.0388 19.8293 92.0631 19.8511C92.2112 19.9842 92.2268 20.2211 92.0979 20.3795C91.969 20.5377 91.7448 20.5584 91.5967 20.4256C91.5728 20.4041 91.5489 20.3819 91.5249 20.3605C91.3765 20.2277 91.3596 19.9915 91.4881 19.8327ZM55.4454 12.2714C55.633 12.2068 55.8319 12.3136 55.8899 12.5101C55.9479 12.7066 55.843 12.9181 55.6556 12.9828C55.6253 12.9933 55.5946 13.004 55.5643 13.0145C55.3768 13.0795 55.1772 12.9731 55.1187 12.7766C55.0604 12.5801 55.1658 12.3679 55.3532 12.3029C55.3839 12.2922 55.4147 12.2819 55.4454 12.2714ZM89.1482 17.9278C89.2655 17.7598 89.488 17.7219 89.6455 17.8424C89.6714 17.8623 89.698 17.8818 89.7238 17.9017C89.881 18.0229 89.9128 18.2574 89.7951 18.4252C89.6774 18.593 89.4543 18.6306 89.2971 18.5094C89.2718 18.4899 89.2468 18.47 89.2214 18.4506C89.064 18.3298 89.0309 18.0959 89.1482 17.9278ZM58.3522 11.3954C58.5435 11.3461 58.7341 11.469 58.7778 11.6697C58.8215 11.8705 58.7015 12.0735 58.5101 12.1231C58.4792 12.1311 58.4481 12.1394 58.4172 12.1475C58.2259 12.1975 58.0346 12.0757 57.9903 11.875C57.9462 11.6742 58.0659 11.4705 58.2573 11.4205C58.2888 11.4123 58.3207 11.4035 58.3522 11.3954ZM86.676 16.2142C86.7812 16.0375 87.0017 15.9816 87.1675 16.0893C87.1947 16.107 87.2215 16.1254 87.2487 16.1431C87.4143 16.2513 87.4632 16.4824 87.3577 16.6589C87.2521 16.835 87.032 16.8899 86.8665 16.7818C86.8398 16.7644 86.8129 16.7465 86.7861 16.7291C86.6205 16.6213 86.571 16.3908 86.676 16.2142ZM61.3105 10.7555C61.5044 10.722 61.6848 10.86 61.7137 11.0638C61.7425 11.2679 61.6083 11.4613 61.414 11.4951C61.3826 11.5006 61.351 11.5059 61.3196 11.5114C61.1255 11.5457 60.9445 11.408 60.9153 11.204C60.8864 11.0001 61.0201 10.8068 61.2141 10.7725C61.2461 10.7668 61.2785 10.7611 61.3105 10.7555ZM84.0839 14.7078C84.176 14.5235 84.3916 14.4499 84.565 14.5436C84.5934 14.5589 84.6217 14.5747 84.6501 14.5901C84.8233 14.6843 84.8888 14.91 84.7966 15.0942C84.7042 15.2785 84.489 15.3516 84.3158 15.2574C84.2877 15.2422 84.2594 15.2272 84.2314 15.212C84.058 15.1182 83.992 14.8923 84.0839 14.7078ZM64.304 10.36C64.4998 10.3425 64.6696 10.4958 64.683 10.7019C64.6962 10.9081 64.5478 11.0897 64.3519 11.1074C64.3202 11.1102 64.2885 11.1127 64.2569 11.1156C64.061 11.1338 63.8905 10.9817 63.8767 10.7755C63.8628 10.5693 64.0111 10.3871 64.207 10.3689C64.2392 10.3659 64.2717 10.3629 64.304 10.36ZM81.8507 13.2183C81.8804 13.2313 81.911 13.2446 81.9407 13.2577C82.1205 13.3372 82.2026 13.5569 82.1241 13.748C82.0456 13.939 81.8357 14.0293 81.6557 13.9499C81.6267 13.937 81.5973 13.9246 81.5682 13.9118C81.3881 13.8329 81.3057 13.6137 81.3837 13.4224C81.4617 13.2312 81.6706 13.1397 81.8507 13.2183ZM67.3117 10.2163C67.508 10.2151 67.6655 10.3815 67.6633 10.5884C67.661 10.7952 67.5003 10.9642 67.304 10.9655C67.2723 10.9657 67.2402 10.9655 67.2085 10.9658C67.0122 10.9674 66.855 10.8015 66.8567 10.5946C66.8585 10.3876 67.0189 10.2181 67.2152 10.2164C67.2474 10.2161 67.2795 10.2164 67.3117 10.2163ZM79.0439 12.1274C79.0743 12.1378 79.1049 12.1477 79.1354 12.1581C79.321 12.2221 79.4202 12.4339 79.3563 12.6307C79.2924 12.8276 79.0898 12.9349 78.9041 12.8709C78.8743 12.8607 78.8443 12.8507 78.8145 12.8405C78.6286 12.7771 78.529 12.5657 78.5924 12.3687C78.6559 12.1718 78.8581 12.064 79.0439 12.1274ZM70.3187 10.3249C70.5142 10.3403 70.6581 10.5204 70.6401 10.7268C70.6221 10.9331 70.4487 11.088 70.2532 11.0726C70.2217 11.0702 70.1903 11.0676 70.1588 11.0652C69.9632 11.0503 69.8188 10.8706 69.8363 10.6641C69.854 10.4579 70.0269 10.3033 70.2223 10.3181C70.2544 10.3206 70.2866 10.3224 70.3187 10.3249ZM76.2522 11.3004C76.4421 11.3484 76.5562 11.5498 76.5077 11.7509C76.4589 11.9521 76.2656 12.0767 76.0755 12.029C76.0448 12.0212 76.0136 12.0137 75.9828 12.006C75.7925 11.9585 75.6772 11.7566 75.7255 11.5552C75.7739 11.3537 75.9675 11.2286 76.1578 11.2761C76.1893 11.2839 76.2208 11.2924 76.2522 11.3004ZM73.3058 10.6877C73.4993 10.7195 73.6293 10.9116 73.5957 11.1161C73.562 11.3204 73.3776 11.4601 73.1843 11.4283L73.0903 11.413C72.8969 11.3818 72.7663 11.1908 72.7991 10.9864C72.8322 10.7818 73.0164 10.6408 73.21 10.6721L73.3058 10.6877Z" fill="#78695D"/>
<path d="M109.304 71.7863C114.356 40.7438 98.2533 12.5104 73.6129 8.49656C48.9727 4.48304 24.7489 26.1472 19.6962 57.1896C14.6436 88.2321 30.7459 116.466 55.3861 120.48C80.0266 124.494 104.251 102.829 109.304 71.7863ZM110.706 72.0147C105.559 103.637 80.7676 126.135 55.145 121.962C29.5227 117.788 13.1477 88.5832 18.2946 56.9612C23.4416 25.3394 48.2318 2.84155 73.8541 7.01506C99.4766 11.1889 115.852 40.3926 110.706 72.0147Z" fill="#78695D"/>
<g filter="url(#filter0_ii_286_146)">
<path d="M105.502 71.1674C100.907 99.3997 78.8246 119.296 56.1796 115.607C33.5347 111.919 18.9025 86.0414 23.4977 57.8091C28.0929 29.5768 50.1754 9.68037 72.8203 13.3691C95.4652 17.0579 110.097 42.9351 105.502 71.1674Z" fill="#BAAA9F" fill-opacity="0.01"/>
</g>
<path d="M105.035 71.0918C109.599 43.0526 95.0569 17.4984 72.7394 13.8629C50.4221 10.2277 28.5286 29.8467 23.9649 57.8857C19.4013 85.9246 33.9424 111.478 56.2596 115.113L56.1792 115.607C33.8885 111.976 19.3622 86.845 23.2966 59.1313L23.4976 57.8096C28.0928 29.5774 50.1751 9.68058 72.8198 13.3691C95.4647 17.0578 110.097 42.9355 105.502 71.1679L105.274 72.4851C100.216 100.016 78.4701 119.238 56.1792 115.607L56.2596 115.113C78.5769 118.749 100.471 99.1307 105.035 71.0918Z" fill="#78695D"/>
<path d="M72.3293 38.7074L72.2519 38.9094C74.6218 38.9094 73.8319 42.0242 72.6856 46.2588C72.6856 46.2588 71.8151 49.4081 71.3984 50.7063C70.5836 53.2245 69.569 54.4774 68.2183 54.54H57.3365L59.3998 46.7396C60.6653 42.0242 61.4553 38.9094 63.8268 38.9094L63.9058 38.7105H54.8938L54.8148 38.9094C57.1863 38.9094 56.3963 42.0274 55.25 46.2697L53.0613 54.5572H49.0525C38.6199 54.5572 31.9221 73.8821 44.3698 73.8821H54.5778L54.6165 73.6832C52.245 73.6832 53.0675 70.5653 54.2215 66.3307L57.2839 54.7498H71.3473H72.4238C72.8581 54.7508 73.2852 54.6375 73.663 54.421C74.2407 54.1186 74.7103 53.6411 75.006 53.0554C75.1686 52.7344 75.511 51.8918 75.9447 50.1786C76.4326 48.2524 77.8577 43.1612 78.073 42.5144C78.245 41.9992 78.4107 41.5528 78.5222 41.307C78.8022 40.6463 79.205 40.0461 79.7088 39.5389C79.8641 39.3849 80.0391 39.2527 80.2292 39.1458C80.3184 39.0989 80.4118 39.0607 80.508 39.0315C80.7135 38.9679 80.9256 38.929 81.14 38.9156H81.2547L81.3306 38.7136L72.3293 38.7074ZM44.4473 73.6754C35.4212 73.6754 42.2152 54.7467 49.0323 54.7467H53.0133L49.9385 66.3918C48.8015 70.5919 47.9682 73.6738 45.609 73.6738L44.4473 73.6754ZM77.7245 56.4897C62.8634 56.4897 52.8227 90.4571 70.2149 90.6967C71.8062 90.6942 73.3847 90.4102 74.879 89.8573L76.9763 81.9848C78.7949 75.1913 75.9493 74.6323 73.5778 74.6323L73.6165 74.4334H85.6337L85.5934 74.6323C83.2219 74.6323 82.3916 77.7502 81.2454 81.9848L79.938 86.8943C77.0522 90.2112 72.5028 92.0497 68.1656 92.009C47.2959 91.89 57.6123 56.2846 77.8097 56.2846C82.8687 56.2846 85.8335 59.4417 86.8218 61.8393C88.0873 64.915 85.7545 66.7144 84.0553 66.7144C82.8687 66.7144 81.9997 65.8343 82.7897 63.9973C84.7213 59.4887 82.7835 56.4897 77.7245 56.4897Z" fill="#78695D"/>
</g>
<defs>
<filter id="filter0_ii_286_146" x="21.6539" y="12.9289" width="85.1922" height="104.119" filterUnits="userSpaceOnUse" color-interpolation-filters="sRGB">
<feFlood flood-opacity="0" result="BackgroundImageFix"/>
<feBlend mode="normal" in="SourceGraphic" in2="BackgroundImageFix" result="shape"/>
<feColorMatrix in="SourceAlpha" type="matrix" values="0 0 0 0 0 0 0 0 0 0 0 0 0 0 0 0 0 0 127 0" result="hardAlpha"/>
<feOffset dx="-1" dy="1"/>
<feGaussianBlur stdDeviation="1.3"/>
<feComposite in2="hardAlpha" operator="arithmetic" k2="-1" k3="1"/>
<feColorMatrix type="matrix" values="0 0 0 0 0 0 0 0 0 0 0 0 0 0 0 0 0 0 0.25 0"/>
<feBlend mode="normal" in2="shape" result="effect1_innerShadow_286_146"/>
<feColorMatrix in="SourceAlpha" type="matrix" values="0 0 0 0 0 0 0 0 0 0 0 0 0 0 0 0 0 0 127 0" result="hardAlpha"/>
<feOffset dx="0.5"/>
<feGaussianBlur stdDeviation="2.6"/>
<feComposite in2="hardAlpha" operator="arithmetic" k2="-1" k3="1"/>
<feColorMatrix type="matrix" values="0 0 0 0 0 0 0 0 0 0 0 0 0 0 0 0 0 0 0.25 0"/>
<feBlend mode="normal" in2="effect1_innerShadow_286_146" result="effect2_innerShadow_286_146"/>
</filter>
<clipPath id="clip0_286_146">
<rect width="129" height="129" fill="white"/>
</clipPath>
</defs>
</svg>
