<svg width="40" height="40" viewBox="0 0 40 40" fill="none" xmlns="http://www.w3.org/2000/svg">
<g clip-path="url(#clip0_286_147)">
<path d="M17.3363 36.4537C17.3963 36.4633 17.4367 36.5228 17.4265 36.5862C17.4162 36.6497 17.3592 36.6931 17.2992 36.6834L17.2694 36.6785C17.2095 36.6687 17.1691 36.6094 17.1795 36.546C17.1899 36.4826 17.2471 36.439 17.3071 36.4489L17.3363 36.4537ZM16.4393 36.2698C16.4983 36.2845 16.5341 36.3471 16.5191 36.4096C16.5041 36.472 16.4441 36.5108 16.3851 36.4961C16.3754 36.4937 16.3657 36.4914 16.356 36.4889C16.2971 36.4741 16.2615 36.4113 16.2766 36.3489C16.2917 36.2865 16.3519 36.2478 16.4109 36.2627C16.4204 36.2651 16.4299 36.2674 16.4393 36.2698ZM18.2455 36.5616C18.3061 36.5662 18.3507 36.6219 18.3452 36.6859C18.3398 36.7498 18.2864 36.7981 18.2258 36.7935C18.2158 36.7927 18.2057 36.7918 18.1957 36.7911C18.1351 36.7863 18.0904 36.7304 18.096 36.6664C18.1016 36.6025 18.1554 36.5544 18.216 36.5592C18.2258 36.56 18.2357 36.5608 18.2455 36.5616ZM15.5335 36.0016C15.5428 36.0048 15.5523 36.0079 15.5616 36.0111C15.6192 36.0308 15.6498 36.0963 15.6302 36.1573C15.6105 36.2184 15.5478 36.2521 15.4901 36.2324C15.4807 36.2292 15.4713 36.2259 15.4618 36.2226C15.4043 36.2028 15.3738 36.1374 15.3935 36.0764C15.4134 36.0154 15.476 35.9818 15.5335 36.0016ZM19.1601 36.5923C19.221 36.5918 19.2699 36.6436 19.2694 36.7078C19.2687 36.7719 19.2188 36.8242 19.158 36.8247C19.148 36.8248 19.138 36.825 19.128 36.825C19.0671 36.8254 19.0183 36.7735 19.019 36.7094C19.0198 36.6452 19.0699 36.5928 19.1307 36.5925C19.1405 36.5924 19.1503 36.5924 19.1601 36.5923ZM14.6803 35.667C14.6894 35.671 14.6983 35.6752 14.7074 35.6791C14.7632 35.7036 14.789 35.7713 14.7649 35.8306C14.7407 35.8899 14.6757 35.9183 14.6199 35.8939C14.6107 35.8899 14.6014 35.8858 14.5922 35.8817C14.5365 35.8571 14.5108 35.7892 14.535 35.7299C14.5594 35.6707 14.6245 35.6424 14.6803 35.667ZM20.0753 36.5459C20.136 36.5402 20.1889 36.5877 20.1931 36.6516C20.1973 36.7154 20.1517 36.7718 20.0911 36.7774C20.081 36.7784 20.0707 36.7793 20.0607 36.7802C20 36.7856 19.9476 36.7381 19.9435 36.6742C19.9394 36.6103 19.9851 36.5542 20.0458 36.5487C20.0556 36.5478 20.0655 36.5468 20.0753 36.5459ZM13.7064 35.3122C13.735 35.2551 13.8018 35.2324 13.8555 35.2616C13.8642 35.2663 13.873 35.271 13.8817 35.2757C13.9355 35.3047 13.9559 35.3748 13.9274 35.432C13.8989 35.4892 13.8323 35.512 13.7785 35.483C13.7696 35.4782 13.7607 35.4733 13.7518 35.4685C13.6981 35.4393 13.6777 35.3693 13.7064 35.3122ZM20.9861 36.4231C21.0463 36.4125 21.1024 36.4552 21.1114 36.5185C21.1205 36.5817 21.079 36.6416 21.0188 36.6523C21.0089 36.654 20.9991 36.6559 20.9892 36.6576C20.9289 36.6681 20.8728 36.6253 20.8639 36.5619C20.855 36.4986 20.8966 36.4387 20.9568 36.4282C20.9666 36.4265 20.9763 36.4249 20.9861 36.4231ZM12.9122 34.8273C12.9449 34.7726 13.0132 34.7554 13.0646 34.7889C13.0729 34.7943 13.0812 34.7998 13.0895 34.8052C13.1409 34.8386 13.1562 34.9101 13.1236 34.9649C13.091 35.0197 13.0229 35.037 12.9715 35.0037C12.963 34.9982 12.9545 34.9928 12.946 34.9873C12.8947 34.9537 12.8795 34.882 12.9122 34.8273ZM21.8861 36.2259C21.9454 36.2104 22.0047 36.2484 22.0184 36.3107C22.032 36.3729 21.9949 36.4361 21.9356 36.4516C21.9259 36.4542 21.9162 36.4567 21.9065 36.4592C21.8471 36.4745 21.7878 36.4364 21.7742 36.3741C21.7607 36.3118 21.7979 36.2489 21.8572 36.2335C21.8668 36.231 21.8765 36.2284 21.8861 36.2259ZM12.1565 34.2793C12.193 34.2274 12.2622 34.2157 12.3109 34.2532C12.3188 34.2593 12.3267 34.2654 12.3346 34.2715C12.3834 34.309 12.3934 34.3815 12.3571 34.4336C12.3207 34.4857 12.2516 34.4977 12.2028 34.4603C12.1948 34.4542 12.1868 34.4479 12.1788 34.4417C12.1301 34.4041 12.12 34.3314 12.1565 34.2793ZM22.7707 35.9571C22.8288 35.9369 22.8907 35.97 22.9088 36.0308C22.9269 36.0917 22.8945 36.1576 22.8364 36.1778C22.8268 36.1811 22.8171 36.1845 22.8075 36.1878C22.7493 36.2077 22.6877 36.1744 22.6697 36.1135C22.6518 36.0525 22.6845 35.9869 22.7426 35.9669C22.752 35.9637 22.7613 35.9603 22.7707 35.9571ZM11.4424 33.6736C11.4824 33.6245 11.5521 33.6181 11.5981 33.6594C11.6055 33.666 11.613 33.6727 11.6204 33.6793C11.6663 33.7204 11.6713 33.7937 11.6315 33.8429C11.5917 33.8921 11.5221 33.8986 11.4761 33.8575C11.4685 33.8507 11.4608 33.844 11.4532 33.8372C11.4073 33.7959 11.4025 33.7228 11.4424 33.6736ZM23.6353 35.6202C23.6919 35.5956 23.7558 35.6238 23.7781 35.6831C23.8004 35.7424 23.7726 35.8102 23.716 35.8347C23.7067 35.8388 23.6974 35.8428 23.6882 35.8468C23.6315 35.8712 23.5673 35.8429 23.5451 35.7836C23.523 35.7243 23.5511 35.6564 23.6078 35.632C23.617 35.6281 23.6261 35.6242 23.6353 35.6202ZM10.7719 33.014C10.815 32.9679 10.885 32.9668 10.928 33.0114C10.935 33.0187 10.9419 33.0261 10.9489 33.0333C10.9919 33.0778 10.9919 33.1513 10.9488 33.1975C10.9058 33.2436 10.836 33.2449 10.793 33.2004C10.7859 33.193 10.7787 33.1858 10.7716 33.1785C10.7286 33.1338 10.7288 33.06 10.7719 33.014ZM24.4762 35.2184C24.5311 35.1897 24.5968 35.2129 24.6231 35.2703C24.6494 35.3277 24.6262 35.3977 24.5713 35.4264C24.5622 35.4311 24.5531 35.4357 24.544 35.4404C24.4891 35.4689 24.4233 35.4456 24.3971 35.3882C24.371 35.3308 24.3943 35.261 24.4492 35.2324C24.4581 35.2278 24.4673 35.2231 24.4762 35.2184ZM10.1479 32.3066C10.1938 32.2637 10.2634 32.2676 10.3033 32.3153C10.3097 32.323 10.3163 32.3308 10.3228 32.3384C10.3627 32.3861 10.3579 32.4595 10.312 32.5025C10.2662 32.5455 10.1965 32.5419 10.1565 32.4943C10.1499 32.4865 10.1434 32.4784 10.1369 32.4706C10.097 32.4229 10.1019 32.3495 10.1479 32.3066ZM25.2891 34.7565C25.3421 34.7239 25.4096 34.7423 25.4396 34.7975C25.4695 34.8528 25.4507 34.9239 25.3977 34.9565C25.389 34.9619 25.3803 34.9675 25.3715 34.9728C25.3185 35.0052 25.2513 34.9865 25.2215 34.9312C25.1916 34.8758 25.2106 34.8047 25.2636 34.7723C25.2721 34.767 25.2806 34.7617 25.2891 34.7565ZM9.57069 31.5556C9.6192 31.5159 9.68843 31.5248 9.72521 31.5752C9.73114 31.5833 9.73707 31.5915 9.74302 31.5996C9.7799 31.65 9.77064 31.7231 9.72225 31.7629C9.67383 31.8027 9.60454 31.7942 9.56763 31.7439C9.56156 31.7356 9.55541 31.7271 9.54935 31.7188C9.51263 31.6683 9.5222 31.5952 9.57069 31.5556ZM26.0723 34.2381C26.1232 34.202 26.1914 34.2156 26.2248 34.2685C26.2582 34.3215 26.2441 34.3939 26.1933 34.43C26.1849 34.436 26.1764 34.4421 26.168 34.448C26.1171 34.4839 26.0489 34.47 26.0156 34.4171C25.9823 34.364 25.9964 34.2916 26.0474 34.2555C26.0556 34.2497 26.0641 34.244 26.0723 34.2381ZM9.04143 30.7654C9.0922 30.7291 9.16065 30.7426 9.19424 30.7955C9.1997 30.8041 9.20521 30.8126 9.21068 30.8212C9.24437 30.874 9.23064 30.9464 9.18001 30.9829C9.12934 31.0193 9.06083 31.0061 9.02709 30.9534C9.02154 30.9447 9.01601 30.9358 9.01047 30.9271C8.97687 30.8742 8.99065 30.8017 9.04143 30.7654ZM26.8228 33.6671C26.8714 33.6277 26.9407 33.6366 26.9773 33.6871C27.0139 33.7376 27.0042 33.8108 26.9557 33.8503C26.9476 33.8568 26.9396 33.8635 26.9316 33.87C26.8829 33.9093 26.8137 33.9001 26.7772 33.8494C26.7407 33.7988 26.7504 33.7257 26.7991 33.6863C26.807 33.6799 26.8149 33.6735 26.8228 33.6671ZM8.56123 29.9415C8.61397 29.9085 8.68146 29.9264 8.71187 29.9813C8.71679 29.9902 8.72172 29.9994 8.72666 30.0083C8.75704 30.0632 8.73909 30.1344 8.6865 30.1676C8.6338 30.2007 8.5663 30.1829 8.53581 30.128C8.53082 30.119 8.52573 30.11 8.52075 30.1009C8.49039 30.0459 8.50849 29.9744 8.56123 29.9415ZM27.5385 33.0481C27.5847 33.0056 27.6544 33.0101 27.694 33.0581C27.7336 33.1061 27.7281 33.1797 27.6818 33.2222C27.6742 33.2292 27.6665 33.2361 27.6589 33.2431C27.6126 33.2855 27.5432 33.2809 27.5038 33.2328C27.4643 33.1847 27.4697 33.1115 27.5159 33.069C27.5234 33.0621 27.531 33.055 27.5385 33.0481ZM8.13008 29.0874C8.18455 29.0578 8.25085 29.0799 8.27803 29.1367C8.28244 29.1459 8.28678 29.1554 8.2912 29.1646C8.31839 29.2215 8.2965 29.2914 8.24219 29.3212C8.18777 29.3509 8.12148 29.329 8.09419 29.2722C8.08971 29.2629 8.08525 29.2533 8.08079 29.244C8.05369 29.1871 8.07568 29.1171 8.13008 29.0874ZM28.2177 32.3848C28.2615 32.3395 28.3314 32.3397 28.3737 32.385C28.4159 32.4304 28.4147 32.5038 28.3711 32.5492C28.3639 32.5566 28.3566 32.5643 28.3494 32.5717C28.3055 32.617 28.2357 32.6167 28.1935 32.5712C28.1513 32.5258 28.1526 32.4524 28.1964 32.4071C28.2035 32.3998 28.2106 32.3922 28.2177 32.3848ZM7.74805 28.2064C7.80405 28.1802 7.86884 28.2064 7.89275 28.265C7.89664 28.2745 7.90045 28.2841 7.90436 28.2936C7.92837 28.3521 7.90249 28.4209 7.84654 28.4472C7.7906 28.4735 7.7258 28.4474 7.70179 28.3889C7.69783 28.3793 7.69389 28.3696 7.68995 28.36C7.66604 28.3014 7.69206 28.2326 7.74805 28.2064ZM28.8596 31.6804C28.9008 31.6325 28.9706 31.6282 29.0154 31.6708C29.0601 31.7134 29.063 31.7869 29.0218 31.8349C29.015 31.8428 29.0082 31.8507 29.0014 31.8585C28.96 31.9064 28.8903 31.9106 28.8456 31.8679C28.8009 31.8251 28.7982 31.7517 28.8395 31.7038C28.8462 31.6961 28.8529 31.6882 28.8596 31.6804ZM7.41503 27.3027C7.4723 27.2798 7.53556 27.3102 7.55624 27.3702C7.55957 27.3799 7.56299 27.3895 7.56633 27.3992C7.58709 27.4591 7.55758 27.5263 7.50037 27.5493C7.44317 27.5722 7.37988 27.5422 7.35906 27.4824C7.35566 27.4726 7.35216 27.4626 7.34878 27.4528C7.32814 27.3928 7.35781 27.3255 7.41503 27.3027ZM29.4624 30.9387C29.5011 30.8883 29.5707 30.8796 29.6178 30.9194C29.6648 30.9593 29.6716 31.0325 29.633 31.0828C29.6267 31.091 29.6202 31.0994 29.6139 31.1076C29.5752 31.1577 29.5059 31.166 29.4589 31.1263C29.4119 31.0864 29.405 31.0132 29.4437 30.9629C29.4499 30.9548 29.4562 30.9467 29.4624 30.9387ZM7.13142 26.3809C7.18975 26.3614 7.25126 26.3952 7.26871 26.4564C7.27153 26.4663 7.27442 26.4761 7.27725 26.486C7.29479 26.5471 7.2618 26.6125 7.20352 26.6321C7.14524 26.6517 7.08375 26.618 7.06617 26.5569C7.06329 26.5469 7.06031 26.5367 7.05745 26.5267C7.04008 26.4656 7.07321 26.4004 7.13142 26.3809ZM30.0249 30.1633C30.0608 30.1108 30.1299 30.0983 30.179 30.1353C30.2281 30.1723 30.2389 30.2446 30.203 30.297C30.1971 30.3056 30.191 30.3143 30.1851 30.3229C30.149 30.3752 30.0801 30.3877 30.031 30.3506C29.982 30.3136 29.9714 30.241 30.0074 30.1887C30.0132 30.1802 30.0191 30.1718 30.0249 30.1633ZM6.89669 25.4425C6.95583 25.4265 7.01525 25.4636 7.02956 25.5256C7.03186 25.5356 7.03422 25.5458 7.03654 25.5559C7.05088 25.618 7.01454 25.6815 6.95536 25.6977C6.89621 25.7139 6.83655 25.6767 6.82221 25.6146C6.81986 25.6044 6.81762 25.5942 6.81528 25.584C6.80106 25.5219 6.83751 25.4586 6.89669 25.4425ZM30.5469 29.3565C30.5801 29.3022 30.6482 29.2859 30.6992 29.3199C30.7503 29.3539 30.7648 29.4255 30.7316 29.4799C30.7261 29.4888 30.7207 29.4978 30.7153 29.5067C30.682 29.561 30.6136 29.5774 30.5627 29.5432C30.5117 29.5091 30.4974 29.4373 30.5307 29.383C30.536 29.3742 30.5415 29.3653 30.5469 29.3565ZM6.71031 24.4908C6.77016 24.4781 6.82767 24.5186 6.83875 24.5815C6.84054 24.5917 6.84241 24.6019 6.84422 24.6121C6.85537 24.675 6.8158 24.7366 6.75594 24.7494C6.69611 24.7622 6.63865 24.7216 6.6275 24.6588C6.62566 24.6485 6.62362 24.6381 6.6218 24.6278C6.61075 24.5649 6.65046 24.5036 6.71031 24.4908ZM31.0272 28.5217C31.0577 28.4656 31.125 28.4455 31.1778 28.4765C31.2305 28.5076 31.2487 28.5783 31.2183 28.6345C31.2133 28.6437 31.2083 28.6529 31.2033 28.6621C31.1728 28.7182 31.1052 28.7384 31.0525 28.7072C30.9998 28.676 30.9818 28.6051 31.0123 28.549C31.0173 28.5399 31.0223 28.5308 31.0272 28.5217ZM6.57235 23.5289C6.63268 23.5196 6.68794 23.5633 6.69585 23.6267C6.69713 23.637 6.69851 23.6475 6.69981 23.6578C6.70775 23.7212 6.66515 23.7804 6.60481 23.79C6.54447 23.7994 6.489 23.7556 6.48102 23.6921C6.47972 23.6817 6.47841 23.6712 6.47712 23.6608C6.46932 23.5974 6.51202 23.5383 6.57235 23.5289ZM31.4655 27.6616C31.4931 27.604 31.5597 27.58 31.6139 27.6081C31.6681 27.6362 31.6897 27.7057 31.6621 27.7633C31.6576 27.7728 31.653 27.7824 31.6485 27.7918C31.6208 27.8495 31.5543 27.8735 31.5001 27.8453C31.4459 27.8171 31.4245 27.7475 31.4522 27.6898C31.4567 27.6805 31.461 27.671 31.4655 27.6616ZM6.48215 22.561C6.54285 22.5549 6.59601 22.6018 6.60075 22.6657C6.60152 22.676 6.60217 22.6864 6.60296 22.6967C6.60778 22.7606 6.56253 22.8174 6.50185 22.8236C6.44119 22.8298 6.38806 22.7831 6.38319 22.7193C6.3824 22.7088 6.38153 22.6983 6.38075 22.6878C6.37601 22.624 6.42147 22.5671 6.48215 22.561ZM32.0061 26.7188C32.0618 26.7438 32.0868 26.8122 32.0621 26.8712C32.058 26.8809 32.0539 26.8906 32.0498 26.9003C32.0249 26.9592 31.9597 26.9867 31.9042 26.9616C31.8486 26.9364 31.8237 26.8682 31.8485 26.8091C31.8525 26.7996 31.8565 26.7899 31.8605 26.7804C31.8852 26.7213 31.9505 26.6937 32.0061 26.7188ZM6.43944 21.5885C6.5003 21.5857 6.55105 21.6352 6.55268 21.6994C6.55294 21.7097 6.55314 21.7201 6.55342 21.7305C6.55515 21.7945 6.50733 21.8488 6.44653 21.8518C6.38567 21.8548 6.3347 21.8053 6.33296 21.7412C6.33268 21.7307 6.33258 21.72 6.33232 21.7095C6.33075 21.6455 6.37863 21.5914 6.43944 21.5885ZM32.355 25.8101C32.4118 25.8321 32.4403 25.8986 32.4185 25.9589C32.4149 25.9688 32.4112 25.9788 32.4076 25.9887C32.3856 26.0489 32.3218 26.0797 32.2651 26.0576C32.2083 26.0355 32.1799 25.9688 32.2019 25.9085C32.2055 25.8988 32.2089 25.889 32.2125 25.8793C32.2344 25.819 32.2982 25.7881 32.355 25.8101ZM6.44361 20.6135C6.50447 20.6139 6.55263 20.6664 6.5512 20.7305C6.55097 20.7409 6.5507 20.7513 6.55048 20.7617C6.54914 20.8259 6.49869 20.8778 6.43782 20.8775C6.37699 20.8772 6.32887 20.825 6.33018 20.7608C6.3304 20.7503 6.33047 20.7395 6.33071 20.729C6.33221 20.6649 6.38278 20.6131 6.44361 20.6135ZM32.6603 24.8841C32.7181 24.9031 32.7496 24.9682 32.7307 25.0295C32.7276 25.0395 32.7245 25.0498 32.7214 25.0599C32.7023 25.1211 32.6398 25.1554 32.582 25.1363C32.5242 25.1173 32.4928 25.052 32.5119 24.9907C32.515 24.9808 32.5181 24.9709 32.5211 24.9609C32.5401 24.8996 32.6024 24.8652 32.6603 24.8841ZM6.49384 19.6393C6.55457 19.6429 6.60035 19.6978 6.59589 19.7618C6.59516 19.7722 6.59441 19.7827 6.5937 19.7931C6.58928 19.8571 6.53657 19.9063 6.47592 19.9028C6.41519 19.8994 6.36951 19.8444 6.37388 19.7803C6.37459 19.7698 6.37509 19.7592 6.37583 19.7487C6.38029 19.6847 6.43317 19.6358 6.49384 19.6393ZM32.9216 23.9443C32.9803 23.9602 33.0149 24.0233 32.9988 24.0855C32.9962 24.0957 32.9936 24.1059 32.9909 24.1161C32.9747 24.1783 32.914 24.2159 32.8553 24.2C32.7966 24.184 32.762 24.1206 32.7781 24.0584C32.7807 24.0484 32.7836 24.0382 32.7862 24.0281C32.8023 23.966 32.8629 23.9284 32.9216 23.9443ZM6.58984 18.6676C6.65027 18.6743 6.69326 18.7315 6.68582 18.7953C6.68461 18.8056 6.68341 18.816 6.68222 18.8263C6.67487 18.8901 6.62001 18.9366 6.55961 18.9301C6.49916 18.9234 6.456 18.8662 6.46335 18.8023C6.46455 18.7919 6.46578 18.7814 6.467 18.771C6.47444 18.7072 6.52944 18.6609 6.58984 18.6676ZM33.1387 22.9923C33.1981 23.0051 33.2355 23.0662 33.2224 23.1291C33.2203 23.1394 33.2181 23.1499 33.2159 23.1602C33.2026 23.2231 33.1438 23.2637 33.0844 23.2509C33.025 23.238 32.9875 23.1764 33.0007 23.1135C33.0029 23.1033 33.005 23.0931 33.0072 23.0829C33.0203 23.0201 33.0792 22.9795 33.1387 22.9923ZM6.5982 17.8293L6.60331 17.7979C6.61369 17.7345 6.6707 17.691 6.73065 17.7007C6.79065 17.7106 6.83093 17.7702 6.82056 17.8336L6.8155 17.8647C6.80518 17.9281 6.74814 17.9716 6.68816 17.9618C6.62819 17.9521 6.58792 17.8927 6.5982 17.8293ZM33.1793 22.1593L33.1844 22.1282C33.1946 22.0647 33.2517 22.021 33.3117 22.0307C33.3717 22.0404 33.412 22.0998 33.4017 22.1633L33.3966 22.1947C33.3862 22.2581 33.3292 22.3016 33.2693 22.2918C33.2093 22.282 33.169 22.2226 33.1793 22.1593ZM6.91579 16.7417C6.97516 16.7547 7.01243 16.8162 6.99917 16.879C6.997 16.8893 6.99484 16.8997 6.99269 16.9099C6.97946 16.9727 6.92058 17.0133 6.86117 17.0005C6.80178 16.9877 6.76431 16.9263 6.77747 16.8635C6.77964 16.8531 6.7818 16.8427 6.78399 16.8323C6.79727 16.7695 6.85637 16.7288 6.91579 16.7417ZM33.4406 21.0625C33.501 21.0692 33.5439 21.1264 33.5366 21.1902C33.5353 21.2008 33.5341 21.2113 33.5329 21.2219C33.5254 21.2857 33.4704 21.332 33.41 21.3253C33.3496 21.3185 33.3067 21.2613 33.314 21.1976C33.3152 21.1872 33.3165 21.1766 33.3177 21.1662C33.325 21.1024 33.3801 21.0559 33.4406 21.0625ZM7.14486 15.7929C7.20348 15.809 7.23792 15.8723 7.22175 15.9344C7.21912 15.9445 7.21652 15.9547 7.21391 15.9648C7.19781 16.0269 7.13699 16.0645 7.07828 16.0486C7.01961 16.0327 6.98503 15.9692 7.0011 15.9071C7.00374 15.8969 7.00663 15.8867 7.00928 15.8765C7.02548 15.8144 7.08618 15.777 7.14486 15.7929ZM33.5242 20.0901C33.5849 20.0936 33.6307 20.1483 33.6263 20.2123C33.6256 20.2228 33.6248 20.2333 33.6241 20.2439C33.6196 20.3079 33.5667 20.3571 33.506 20.3536C33.4453 20.35 33.3998 20.2951 33.4043 20.2311C33.405 20.2207 33.4054 20.2102 33.4062 20.1998C33.4105 20.1357 33.4635 20.0866 33.5242 20.0901ZM7.41781 14.8565C7.47563 14.8756 7.50705 14.9405 7.48798 15.0018C7.48489 15.0117 7.48185 15.0217 7.47877 15.0316C7.45979 15.0929 7.39749 15.1274 7.33964 15.1084C7.28178 15.0895 7.2502 15.0244 7.26918 14.9631C7.2723 14.9531 7.2756 14.9431 7.27873 14.933C7.2978 14.8718 7.36 14.8375 7.41781 14.8565ZM33.562 19.1153C33.6229 19.1156 33.6713 19.1679 33.67 19.2321C33.6697 19.2426 33.6694 19.2531 33.6692 19.2636C33.6678 19.3277 33.6172 19.3794 33.5563 19.379C33.4955 19.3786 33.4473 19.3262 33.4487 19.262C33.4489 19.2516 33.4492 19.2412 33.4494 19.2308C33.4508 19.1667 33.5012 19.1151 33.562 19.1153ZM7.7351 13.935C7.7918 13.9572 7.81991 14.0238 7.79799 14.084C7.79444 14.0937 7.79095 14.1036 7.78741 14.1133C7.76553 14.1736 7.70164 14.2048 7.64482 14.1828C7.588 14.1608 7.55977 14.094 7.58165 14.0337C7.58523 14.0239 7.58869 14.014 7.59228 14.0042C7.61425 13.9439 7.67832 13.9129 7.7351 13.935ZM33.5537 18.1408C33.6145 18.1379 33.6652 18.1875 33.6669 18.2516C33.6672 18.2621 33.6676 18.2726 33.6679 18.2831C33.6695 18.3472 33.6213 18.4015 33.5604 18.4044C33.4996 18.4071 33.4489 18.3573 33.4472 18.2932C33.447 18.2828 33.4468 18.2724 33.4465 18.2621C33.4448 18.198 33.4928 18.1437 33.5537 18.1408ZM8.09568 13.0313C8.15127 13.0564 8.17617 13.1247 8.15132 13.1837C8.14734 13.1932 8.1434 13.2027 8.13943 13.2122C8.11468 13.2713 8.04939 13.2989 7.99376 13.2738C7.93822 13.2487 7.91312 13.1806 7.93778 13.1216C7.94183 13.112 7.946 13.1022 7.95006 13.0926C7.9749 13.0336 8.04009 13.0061 8.09568 13.0313ZM33.498 17.1692C33.5587 17.163 33.6118 17.2097 33.6167 17.2736C33.6175 17.284 33.6183 17.2946 33.6191 17.305C33.6238 17.3688 33.5784 17.4255 33.5178 17.4316C33.4571 17.4377 33.4039 17.3908 33.3992 17.3269C33.3984 17.3166 33.3977 17.3064 33.3969 17.2961C33.3921 17.2323 33.4373 17.1755 33.498 17.1692ZM8.3514 12.2007C8.3791 12.1431 8.44555 12.1194 8.49976 12.1475C8.55399 12.1757 8.57563 12.2454 8.54794 12.3031C8.54346 12.3124 8.53885 12.3216 8.53439 12.3309C8.5068 12.3886 8.44053 12.4125 8.38626 12.3845C8.33199 12.3564 8.31016 12.2869 8.33776 12.2292C8.3423 12.2197 8.34685 12.2102 8.3514 12.2007ZM33.395 16.2029C33.4554 16.1934 33.5109 16.237 33.5189 16.3004C33.5202 16.3109 33.5215 16.3213 33.5228 16.3318C33.5307 16.3952 33.4881 16.4542 33.4278 16.4637C33.3675 16.4731 33.3119 16.4293 33.304 16.3658C33.3028 16.3555 33.3017 16.3451 33.3004 16.3348C33.2925 16.2714 33.3347 16.2124 33.395 16.2029ZM8.79686 11.3305C8.8274 11.2745 8.8947 11.2545 8.94735 11.2856C9.00004 11.3168 9.01809 11.3874 8.98758 11.4435C8.98262 11.4526 8.97762 11.4617 8.97267 11.4709C8.94225 11.527 8.87482 11.5474 8.82208 11.5163C8.76937 11.4853 8.75122 11.4145 8.78157 11.3584C8.78658 11.3491 8.79183 11.3397 8.79686 11.3305ZM33.2439 15.2434C33.3038 15.2306 33.3615 15.271 33.3727 15.3338C33.3745 15.3442 33.3762 15.3547 33.3781 15.3651C33.3891 15.4279 33.3494 15.4893 33.2895 15.502C33.2297 15.5147 33.1722 15.474 33.1612 15.4111C33.1594 15.4009 33.1575 15.3906 33.1557 15.3804C33.1446 15.3176 33.1841 15.2563 33.2439 15.2434ZM9.28461 10.4859C9.31789 10.4316 9.38627 10.4152 9.43724 10.4493C9.48822 10.4835 9.50254 10.5552 9.46925 10.6096C9.46384 10.6184 9.45841 10.6273 9.45302 10.6361C9.41981 10.6904 9.35165 10.707 9.30063 10.673C9.24959 10.6389 9.23514 10.5671 9.26834 10.5127C9.27379 10.5038 9.27916 10.4948 9.28461 10.4859ZM33.0445 14.2949C33.1037 14.2787 33.1633 14.3159 33.1777 14.378C33.18 14.3881 33.1823 14.3984 33.1846 14.4086C33.1989 14.4707 33.1624 14.5342 33.1032 14.5503C33.044 14.5663 32.9846 14.529 32.9703 14.467C32.968 14.4569 32.9657 14.4468 32.9634 14.4367C32.949 14.3746 32.9854 14.3111 33.0445 14.2949ZM9.81476 9.66992C9.85078 9.61754 9.91981 9.60488 9.9689 9.64192C10.018 9.67899 10.0285 9.75178 9.99244 9.80417C9.98663 9.81262 9.98075 9.8211 9.97495 9.82957C9.939 9.88198 9.86994 9.89453 9.82081 9.85757C9.77172 9.82058 9.76101 9.74801 9.79693 9.69557C9.80282 9.68698 9.80886 9.6785 9.81476 9.66992ZM32.7964 13.3604C32.8547 13.3409 32.9161 13.3748 32.9337 13.4359C32.9366 13.4459 32.9396 13.4559 32.9425 13.4659C32.9599 13.5271 32.9268 13.5925 32.8684 13.6119C32.8101 13.6314 32.7486 13.5976 32.7311 13.5365C32.7283 13.5266 32.7254 13.5167 32.7226 13.5068C32.7051 13.4457 32.7381 13.38 32.7964 13.3604ZM10.386 8.88525C10.4247 8.83501 10.4942 8.8267 10.5412 8.86663C10.5881 8.90658 10.5949 8.97973 10.5562 9.02994C10.5499 9.03803 10.5436 9.0461 10.5374 9.05421C10.4988 9.1045 10.4292 9.11295 10.3821 9.07312C10.3351 9.03327 10.3283 8.96005 10.3669 8.90977C10.3732 8.90155 10.3797 8.89346 10.386 8.88525ZM32.4998 12.4436C32.557 12.4207 32.62 12.4506 32.6408 12.5105C32.6442 12.5203 32.6477 12.53 32.6511 12.5398C32.6718 12.5998 32.6421 12.667 32.5849 12.6899C32.5276 12.7127 32.4643 12.6826 32.4436 12.6227C32.4403 12.613 32.4369 12.6033 32.4335 12.5937C32.4127 12.5338 32.4425 12.4666 32.4998 12.4436ZM10.9985 8.13401C11.0399 8.08623 11.1096 8.08207 11.1543 8.12469C11.199 8.16743 11.2017 8.24113 11.1604 8.28901C11.1537 8.29673 11.147 8.30441 11.1403 8.31215C11.0991 8.3601 11.0293 8.36441 10.9845 8.32177C10.9398 8.27912 10.9369 8.20564 10.9781 8.1577C10.9849 8.14982 10.9918 8.14188 10.9985 8.13401ZM32.1534 11.5454C32.2093 11.5191 32.2741 11.5452 32.2981 11.6036C32.3021 11.6132 32.306 11.623 32.31 11.6326C32.3339 11.6912 32.3078 11.7599 32.2519 11.7861C32.1959 11.8124 32.1311 11.7861 32.1072 11.7276C32.1033 11.7181 32.0994 11.7087 32.0955 11.6993C32.0715 11.6407 32.0974 11.5717 32.1534 11.5454ZM11.6507 7.42116C11.6946 7.37588 11.7645 7.37592 11.8067 7.42139C11.8488 7.46687 11.8473 7.54047 11.8035 7.58573C11.7964 7.59305 11.7892 7.6004 11.7822 7.60774C11.7384 7.6531 11.6685 7.65319 11.6262 7.60781C11.5839 7.56243 11.5853 7.4888 11.6291 7.44343C11.6363 7.43598 11.6435 7.42859 11.6507 7.42116ZM31.758 10.6714C31.8124 10.6417 31.8787 10.6638 31.9059 10.7207C31.9104 10.73 31.915 10.7393 31.9194 10.7486C31.9465 10.8056 31.9242 10.8758 31.8698 10.9054C31.8153 10.935 31.749 10.9128 31.7219 10.8559C31.7175 10.8466 31.7131 10.8374 31.7087 10.8282C31.6814 10.7713 31.7035 10.7011 31.758 10.6714ZM12.341 6.74951C12.3873 6.70707 12.457 6.71168 12.4964 6.75979C12.5359 6.80791 12.5303 6.8814 12.484 6.92385C12.4765 6.93071 12.4689 6.93755 12.4614 6.94443C12.4152 6.98698 12.3455 6.98248 12.3059 6.93445C12.2664 6.88641 12.2719 6.81288 12.3181 6.77035C12.3257 6.76337 12.3334 6.75646 12.341 6.74951ZM31.3137 9.82505C31.3663 9.79204 31.4336 9.80971 31.4641 9.8646C31.4691 9.87359 31.4742 9.88261 31.4792 9.89161C31.5095 9.94665 31.4914 10.0181 31.4387 10.0511C31.3859 10.0841 31.3184 10.0663 31.288 10.0112C31.2831 10.0023 31.2781 9.99343 31.2732 9.98455C31.2427 9.92957 31.261 9.85815 31.3137 9.82505ZM13.0686 6.12293C13.1173 6.08356 13.1865 6.09252 13.223 6.14317C13.2595 6.19382 13.2495 6.26687 13.2008 6.30626C13.1929 6.31267 13.1849 6.3193 13.177 6.32572C13.1284 6.36515 13.0592 6.35604 13.0226 6.30548C12.986 6.2549 12.9959 6.18183 13.0445 6.14234C13.0525 6.13585 13.0606 6.12941 13.0686 6.12293ZM30.8202 9.00969C30.8709 8.97333 30.9394 8.98672 30.973 9.03951C30.9786 9.04819 30.9842 9.05686 30.9897 9.06555C31.0233 9.11844 31.0092 9.19083 30.9585 9.22717C30.9077 9.2635 30.8393 9.24994 30.8057 9.19706C30.8002 9.1885 30.7947 9.17989 30.7892 9.17135C30.7556 9.11855 30.7695 9.04612 30.8202 9.00969ZM13.8319 5.54484C13.8828 5.50879 13.9513 5.52247 13.9846 5.57555C14.0179 5.62864 14.0035 5.70097 13.9525 5.73703C13.9443 5.74284 13.9361 5.74867 13.9279 5.75451C13.877 5.79067 13.8085 5.77711 13.7751 5.72409C13.7417 5.67109 13.7558 5.59869 13.8066 5.56253C13.815 5.55657 13.8235 5.55077 13.8319 5.54484ZM30.2779 8.22968C30.3264 8.19003 30.3954 8.19868 30.4322 8.24898C30.4383 8.25726 30.4445 8.26547 30.4506 8.27376C30.4873 8.32422 30.4777 8.39733 30.4292 8.43699C30.3807 8.47663 30.3115 8.46779 30.2747 8.41735C30.2688 8.40922 30.2628 8.40107 30.2569 8.39295C30.22 8.34259 30.2295 8.26945 30.2779 8.22968ZM14.6283 5.02004C14.6813 4.98761 14.7485 5.00609 14.7784 5.06138C14.8083 5.11675 14.7896 5.18819 14.7365 5.22065C14.728 5.22589 14.7193 5.23113 14.7107 5.2364C14.6578 5.26892 14.5906 5.25033 14.5606 5.19506C14.5306 5.13977 14.5492 5.06862 14.6022 5.03605C14.6109 5.0307 14.6196 5.02537 14.6283 5.02004ZM29.6879 7.49008C29.7337 7.44711 29.8033 7.45095 29.8433 7.49852C29.8499 7.50632 29.8565 7.51417 29.8631 7.52199C29.9029 7.56967 29.8982 7.64309 29.8523 7.68603C29.8064 7.72895 29.7365 7.72525 29.6966 7.67754C29.6902 7.66987 29.6838 7.66211 29.6774 7.65446C29.6374 7.60684 29.642 7.5331 29.6879 7.49008ZM15.4559 4.5522C15.5108 4.52362 15.5766 4.54721 15.6027 4.60467C15.6288 4.66212 15.6056 4.73186 15.5506 4.76043C15.5418 4.76504 15.5329 4.76958 15.524 4.77421C15.4691 4.80292 15.4031 4.77968 15.3768 4.72229C15.3506 4.66495 15.3737 4.59521 15.4286 4.56648C15.4376 4.56174 15.4468 4.55691 15.4559 4.5522ZM29.051 6.79535C29.094 6.74918 29.1638 6.74769 29.2069 6.79219C29.214 6.79955 29.2212 6.80703 29.2283 6.8144C29.2712 6.85905 29.2711 6.93252 29.228 6.9786C29.1849 7.02469 29.1152 7.02581 29.0722 6.98116C29.0652 6.97391 29.058 6.96683 29.051 6.9596C29.008 6.91506 29.008 6.84153 29.051 6.79535ZM16.312 4.14581C16.3687 4.12145 16.4326 4.14967 16.4548 4.20898C16.477 4.26828 16.449 4.33613 16.3924 4.3606C16.3832 4.36454 16.374 4.36872 16.3649 4.37269C16.3082 4.39725 16.2441 4.36904 16.2217 4.30978C16.1994 4.25049 16.2273 4.18238 16.2839 4.15781C16.2933 4.15377 16.3027 4.14982 16.312 4.14581ZM28.3684 6.14966C28.4083 6.10042 28.4781 6.09395 28.5241 6.13511C28.5317 6.14185 28.5392 6.14861 28.5467 6.15537C28.5926 6.19664 28.5974 6.27008 28.5575 6.31922C28.5175 6.36828 28.448 6.3747 28.4021 6.33352C28.3947 6.32684 28.3873 6.31997 28.3798 6.31331C28.3338 6.27216 28.3286 6.1989 28.3684 6.14966ZM17.1924 3.80507C17.2505 3.78506 17.3122 3.81815 17.3302 3.87909C17.3482 3.94003 17.3156 4.00561 17.2575 4.02567C17.2481 4.02891 17.2386 4.03223 17.2292 4.03549C17.1711 4.05565 17.1092 4.02264 17.0911 3.96171C17.073 3.9008 17.1057 3.83499 17.1638 3.81484C17.1733 3.81153 17.1829 3.80834 17.1924 3.80507ZM27.6428 5.55899C27.6792 5.5069 27.7482 5.49514 27.797 5.53253C27.8051 5.53869 27.8133 5.54473 27.8213 5.55092C27.8701 5.58849 27.8799 5.66121 27.8434 5.71324C27.8069 5.76526 27.7377 5.77692 27.689 5.73935C27.6812 5.7333 27.6734 5.72713 27.6655 5.7211C27.6167 5.68366 27.6065 5.61111 27.6428 5.55899ZM18.0937 3.53344C18.153 3.51817 18.2121 3.55626 18.2257 3.61849C18.2392 3.68078 18.202 3.7437 18.1427 3.75908C18.1331 3.76157 18.1234 3.76416 18.1138 3.76667C18.0545 3.78217 17.9952 3.74439 17.9815 3.68217C17.9678 3.6199 18.0049 3.55674 18.0643 3.54123C18.074 3.53867 18.0839 3.53597 18.0937 3.53344ZM26.8763 5.02764C26.9089 4.97287 26.9773 4.95552 27.0287 4.98892C27.0371 4.9944 27.0454 5.0001 27.0538 5.0056C27.1052 5.03914 27.1204 5.11082 27.0876 5.16553C27.0549 5.22016 26.9867 5.23718 26.9353 5.20366C26.9271 5.19825 26.9187 5.19271 26.9104 5.18732C26.8591 5.15388 26.8437 5.0824 26.8763 5.02764ZM19.011 3.33503C19.0711 3.32464 19.1271 3.36744 19.136 3.43061C19.1449 3.49392 19.1033 3.55387 19.0431 3.56437C19.0334 3.56607 19.0235 3.5677 19.0138 3.56942C18.9536 3.58004 18.8975 3.53736 18.8885 3.47409C18.8795 3.41086 18.9209 3.35094 18.9811 3.34029C18.991 3.33853 19.0011 3.33676 19.011 3.33503ZM26.0725 4.56054C26.1011 4.50341 26.1679 4.48057 26.2217 4.50962C26.2305 4.51439 26.2393 4.51926 26.2481 4.52406C26.3018 4.55325 26.3221 4.62323 26.2935 4.68035C26.2649 4.73749 26.1981 4.76019 26.1444 4.73097C26.1357 4.72625 26.1269 4.72159 26.1182 4.71689C26.0645 4.6878 26.044 4.61774 26.0725 4.56054ZM19.9392 3.21238C19.9999 3.20696 20.0526 3.25449 20.0567 3.31841C20.0608 3.38233 20.0148 3.43866 19.9541 3.44413C19.9442 3.44502 19.9344 3.44579 19.9246 3.4467C19.8639 3.45234 19.811 3.40516 19.8067 3.34123C19.8024 3.2773 19.8484 3.22079 19.9091 3.21516C19.9191 3.21423 19.9292 3.21328 19.9392 3.21238ZM25.38 4.09867C25.3893 4.10271 25.3988 4.10683 25.408 4.1109C25.4637 4.13556 25.4892 4.20369 25.4648 4.26292C25.4405 4.32217 25.3754 4.35015 25.3196 4.32553C25.3106 4.32155 25.3015 4.31769 25.2925 4.31374C25.2366 4.28926 25.2111 4.22129 25.2353 4.16197C25.2594 4.1027 25.3242 4.07432 25.38 4.09867ZM20.8718 3.16782C20.9327 3.16746 20.9815 3.21906 20.9809 3.28321C20.9801 3.34735 20.9303 3.39973 20.8695 3.40014C20.8596 3.4002 20.8497 3.40014 20.8398 3.40023C20.779 3.40074 20.7302 3.34928 20.7308 3.28514C20.7313 3.22097 20.781 3.16838 20.8419 3.16786C20.8519 3.16777 20.8619 3.16788 20.8718 3.16782ZM24.5097 3.76042C24.5192 3.76364 24.5287 3.7667 24.5381 3.76995C24.5957 3.78977 24.6264 3.85546 24.6066 3.9165C24.5868 3.97753 24.524 4.0108 24.4664 3.99098C24.4571 3.98779 24.4478 3.9847 24.4386 3.98154C24.381 3.96188 24.3501 3.89633 24.3697 3.83524C24.3894 3.77418 24.4521 3.74076 24.5097 3.76042ZM21.8042 3.2015C21.8649 3.20628 21.9095 3.26212 21.9039 3.32611C21.8983 3.39011 21.8445 3.43814 21.7839 3.43336C21.7742 3.43259 21.7644 3.4318 21.7547 3.43105C21.694 3.42644 21.6492 3.37071 21.6547 3.3067C21.6602 3.24276 21.7138 3.1948 21.7744 3.1994C21.7843 3.20016 21.7943 3.20072 21.8042 3.2015ZM23.6441 3.50398C23.703 3.51887 23.7384 3.58131 23.7233 3.64367C23.7082 3.70606 23.6482 3.74472 23.5893 3.72991C23.5798 3.7275 23.5701 3.72515 23.5606 3.72277C23.5015 3.70806 23.4658 3.64545 23.4808 3.58298C23.4958 3.52053 23.5558 3.48174 23.6148 3.49644C23.6246 3.49887 23.6344 3.50152 23.6441 3.50398ZM22.7305 3.31401C22.7905 3.32387 22.8308 3.38344 22.8204 3.44685C22.8099 3.51019 22.7527 3.5535 22.6928 3.54365L22.6636 3.53891C22.6037 3.52922 22.5632 3.47 22.5734 3.40662C22.5836 3.34318 22.6407 3.29948 22.7008 3.30917L22.7305 3.31401Z" fill="#E8DACB"/>
<path d="M33.8927 22.2593C35.4593 12.6337 30.4661 3.87913 22.8257 2.63453C15.1853 1.39003 7.67408 8.1076 6.10735 17.7331C4.54066 27.3587 9.53361 36.1134 17.174 37.3581C24.8144 38.6027 32.326 31.8849 33.8927 22.2593ZM34.3273 22.3301C32.7313 32.1354 25.0442 39.1117 17.0992 37.8175C9.15431 36.5232 4.0768 27.4676 5.67274 17.6623C7.26871 7.85712 14.9556 0.881037 22.9005 2.17515C30.8454 3.46936 35.9232 12.5248 34.3273 22.3301Z" fill="#E8DACB"/>
<g filter="url(#filter0_ii_286_147)">
<path d="M32.7139 22.0677C31.289 30.8219 24.4417 36.9913 17.42 35.8475C10.3984 34.7037 5.86125 26.6798 7.28612 17.9256C8.71098 9.17139 15.5583 3.00195 22.5799 4.14575C29.6016 5.28956 34.1387 13.3135 32.7139 22.0677Z" fill="#BAAA9F" fill-opacity="0.01"/>
</g>
<path d="M32.569 22.0442C33.9841 13.3499 29.475 5.42613 22.5549 4.29886C15.6348 3.17167 8.84607 9.25507 7.43096 17.9493C6.01592 26.6436 10.5248 34.567 17.4448 35.6944L17.4199 35.8475C10.5081 34.7215 6.00379 26.9289 7.22374 18.3356L7.28609 17.9257C8.71095 9.17158 15.5582 3.00201 22.5798 4.14573C29.6014 5.28953 34.1387 13.3136 32.7138 22.0678L32.643 22.4763C31.0748 31.013 24.3318 36.9734 17.4199 35.8475L17.4448 35.6944C24.3649 36.8216 31.1538 30.7385 32.569 22.0442Z" fill="#E8DACB"/>
<path d="M22.4277 12.0024L22.4037 12.0651C23.1386 12.0651 22.8936 13.0309 22.5382 14.344C22.5382 14.344 22.2682 15.3205 22.139 15.7231C21.8864 16.5039 21.5718 16.8924 21.153 16.9118H17.7788L18.4185 14.493C18.811 13.0309 19.0559 12.0651 19.7913 12.0651L19.8158 12.0034H17.0213L16.9968 12.0651C17.7322 12.0651 17.4872 13.0319 17.1318 14.3474L16.4531 16.9171H15.2101C11.9752 16.9171 9.89831 22.9094 13.7581 22.9094H16.9233L16.9353 22.8477C16.2 22.8477 16.455 21.8809 16.8129 20.5678L17.7624 16.9769H22.1232H22.457C22.5917 16.9772 22.7241 16.942 22.8412 16.8749C23.0204 16.7811 23.166 16.6331 23.2577 16.4514C23.3081 16.3519 23.4143 16.0907 23.5487 15.5594C23.7 14.9621 24.1419 13.3835 24.2087 13.1829C24.262 13.0232 24.3134 12.8848 24.348 12.8085C24.4348 12.6037 24.5597 12.4176 24.7159 12.2603C24.7641 12.2125 24.8183 12.1715 24.8773 12.1384C24.9049 12.1239 24.9339 12.112 24.9637 12.103C25.0274 12.0832 25.0932 12.0712 25.1597 12.067H25.1952L25.2188 12.0044L22.4277 12.0024ZM13.7821 22.8453C10.9833 22.8453 13.09 16.9759 15.2038 16.9759H16.4382L15.4848 20.5868C15.1323 21.8891 14.8739 22.8448 14.1423 22.8448L13.7821 22.8453ZM24.1006 17.5164C19.4925 17.5164 16.3791 28.0489 21.7721 28.1232C22.2655 28.1224 22.7549 28.0343 23.2183 27.8629L23.8686 25.4218C24.4325 23.3153 23.5502 23.1419 22.8148 23.1419L22.8268 23.0803H26.5531L26.5406 23.1419C25.8052 23.1419 25.5478 24.1088 25.1924 25.4218L24.787 26.9441C23.8922 27.9726 22.4815 28.5427 21.1366 28.5301C14.6654 28.4932 17.8643 17.4527 24.127 17.4527C25.6957 17.4527 26.615 18.4317 26.9215 19.1751C27.3139 20.1288 26.5906 20.6868 26.0636 20.6868C25.6957 20.6868 25.4263 20.4139 25.6712 19.8443C26.2702 18.4463 25.6693 17.5164 24.1006 17.5164Z" fill="#E8DACB"/>
</g>
<defs>
<filter id="filter0_ii_286_147" x="6.71437" y="4.00928" width="26.4162" height="32.2847" filterUnits="userSpaceOnUse" color-interpolation-filters="sRGB">
<feFlood flood-opacity="0" result="BackgroundImageFix"/>
<feBlend mode="normal" in="SourceGraphic" in2="BackgroundImageFix" result="shape"/>
<feColorMatrix in="SourceAlpha" type="matrix" values="0 0 0 0 0 0 0 0 0 0 0 0 0 0 0 0 0 0 127 0" result="hardAlpha"/>
<feOffset dx="-0.310078" dy="0.310078"/>
<feGaussianBlur stdDeviation="0.403101"/>
<feComposite in2="hardAlpha" operator="arithmetic" k2="-1" k3="1"/>
<feColorMatrix type="matrix" values="0 0 0 0 0 0 0 0 0 0 0 0 0 0 0 0 0 0 0.25 0"/>
<feBlend mode="normal" in2="shape" result="effect1_innerShadow_286_147"/>
<feColorMatrix in="SourceAlpha" type="matrix" values="0 0 0 0 0 0 0 0 0 0 0 0 0 0 0 0 0 0 127 0" result="hardAlpha"/>
<feOffset dx="0.155039"/>
<feGaussianBlur stdDeviation="0.806202"/>
<feComposite in2="hardAlpha" operator="arithmetic" k2="-1" k3="1"/>
<feColorMatrix type="matrix" values="0 0 0 0 0 0 0 0 0 0 0 0 0 0 0 0 0 0 0.25 0"/>
<feBlend mode="normal" in2="effect1_innerShadow_286_147" result="effect2_innerShadow_286_147"/>
</filter>
<clipPath id="clip0_286_147">
<rect width="40" height="40" fill="white"/>
</clipPath>
</defs>
</svg>
