<svg preserveAspectRatio="none" width="100%" height="100%" overflow="visible" style="display: block;" viewBox="0 0 152.993 315" fill="none" xmlns="http://www.w3.org/2000/svg">
<g id="Group 25" filter="url(#filter0_d_0_14)">
<g id="Vector" filter="url(#filter1_i_0_14)">
<path d="M3.5 43.2695C3.50024 33.3287 11.5591 25.2696 21.5 25.2695H21.9189C21.9192 18.4319 27.4622 12.8889 34.2998 12.8887H51.7354C57.3398 7.82792 65.4036 3.50004 74.3662 3.5C83.3286 3.5 91.3926 7.82812 96.9971 12.8887H114.693C121.531 12.8887 127.074 18.4318 127.074 25.2695H127.493C137.434 25.2695 145.493 33.3286 145.493 43.2695V267.729C145.493 277.671 137.434 285.729 127.493 285.729H127.074C127.074 292.567 121.531 298.11 114.693 298.11H96.9971C91.3926 303.171 83.3286 307.5 74.3662 307.5C65.4036 307.5 57.3398 303.171 51.7354 298.11H34.2998C27.4621 298.11 21.9189 292.567 21.9189 285.729H21.5C11.5589 285.729 3.5 277.671 3.5 267.729V43.2695Z" fill="#78695D"/>
<path d="M144.993 43.2695C144.993 33.6047 137.158 25.7695 127.493 25.7695H126.574V25.2695C126.574 18.7079 121.255 13.3887 114.693 13.3887H96.8047L96.6621 13.2598C91.1195 8.25506 83.1696 4 74.3662 4C65.5627 4.00004 57.6129 8.25487 52.0703 13.2598L51.9277 13.3887H34.2998C27.7383 13.3889 22.4192 18.7081 22.4189 25.2695V25.7695H21.5C11.8352 25.7696 4.00024 33.6048 4 43.2695V267.729C4 277.394 11.8351 285.229 21.5 285.229H22.4189V285.729C22.4189 292.291 27.7382 297.61 34.2998 297.61H51.9277L52.0703 297.739C57.6129 302.744 65.5626 307 74.3662 307C83.1695 307 91.1195 302.744 96.6621 297.739L96.8047 297.61H114.693C121.255 297.61 126.574 292.291 126.574 285.729V285.229H127.493C137.158 285.229 144.993 277.394 144.993 267.729V43.2695ZM145.993 267.729C145.993 277.923 137.748 286.191 127.563 286.229C127.301 293.111 121.64 298.61 114.693 298.61H97.1865C91.5262 303.671 83.4104 308 74.3662 308C65.3218 308 57.2063 303.671 51.5459 298.61H34.2998C27.353 298.61 21.6909 293.111 21.4287 286.229C11.2443 286.19 3 277.923 3 267.729V43.2695C3.00025 33.0763 11.2444 24.808 21.4287 24.7695C21.6916 17.8875 27.3535 12.3889 34.2998 12.3887H51.5459C57.2063 7.32774 65.3219 3.00004 74.3662 3C83.4103 3 91.5261 7.32794 97.1865 12.3887H114.693C121.64 12.3887 127.301 17.8874 127.563 24.7695C137.748 24.8074 145.993 33.0759 145.993 43.2695V267.729Z" fill="var(--fill-0, #E6DBCF)"/>
<path d="M74.3755 8.43213C82.6797 8.43213 90.1513 12.6198 95.3442 17.5161H113.627C118.598 17.5161 122.627 21.5456 122.627 26.5161V29.4956H124.992C133.828 29.4956 140.992 36.6591 140.992 45.4956V265.504C140.992 274.341 133.828 281.504 124.992 281.504H122.627V284.484C122.627 289.454 118.598 293.484 113.627 293.484H95.3442C90.1513 298.38 82.6797 302.568 74.3755 302.568C66.0711 302.568 58.5996 298.38 53.4067 293.484H35.3657C30.3952 293.484 26.3658 289.454 26.3657 284.484V281.504H24.0005C15.1641 281.504 8.00055 274.341 8.00049 265.504V45.4956C8.00055 36.6592 15.1641 29.4958 24.0005 29.4956H26.3657V26.5161C26.3658 21.5456 30.3952 17.5161 35.3657 17.5161H53.4067C58.5996 12.6196 66.0711 8.43215 74.3755 8.43213Z" fill="#78695D"/>
<path d="M122.377 26.5161C122.377 21.6837 118.46 17.7661 113.627 17.7661H95.2446L95.1724 17.6978C90.0095 12.8298 82.5963 8.68213 74.3755 8.68213C66.1545 8.68215 58.7415 12.8297 53.5786 17.6978L53.5063 17.7661H35.3657C30.5333 17.7661 26.6158 21.6837 26.6157 26.5161V29.7456H24.0005C15.3022 29.7458 8.25055 36.7973 8.25049 45.4956V265.504C8.25055 274.203 15.3022 281.254 24.0005 281.254H26.6157V284.484C26.6158 289.316 30.5333 293.234 35.3657 293.234H53.5063L53.5786 293.302C58.7415 298.17 66.1545 302.318 74.3755 302.318C82.5964 302.318 90.0095 298.17 95.1724 293.302L95.2446 293.234H113.627C118.46 293.234 122.377 289.316 122.377 284.484V281.254H124.992C133.69 281.254 140.742 274.203 140.742 265.504V45.4956C140.742 36.7972 133.69 29.7456 124.992 29.7456H122.377V26.5161ZM122.877 29.2456H124.992C133.966 29.2456 141.242 36.521 141.242 45.4956V265.504C141.242 274.479 133.966 281.754 124.992 281.754H122.877V284.484C122.877 289.592 118.736 293.734 113.627 293.734H95.4419C90.222 298.629 82.7239 302.818 74.3755 302.818C66.027 302.818 58.529 298.629 53.3091 293.734H35.3657C30.2571 293.734 26.1158 289.592 26.1157 284.484V281.754H24.0005C15.0261 281.754 7.75055 274.479 7.75049 265.504V45.4956C7.75055 36.5211 15.0261 29.2458 24.0005 29.2456H26.1157V26.5161C26.1158 21.4076 30.2571 17.2661 35.3657 17.2661H53.3091C58.529 12.3708 66.027 8.18215 74.3755 8.18213C82.7239 8.18213 90.222 12.371 95.4419 17.2661H113.627C118.736 17.2661 122.877 21.4076 122.877 26.5161V29.2456Z" fill="var(--fill-0, #E6DBCF)"/>
</g>
</g>
<defs>
<filter id="filter0_d_0_14" x="0" y="0" width="152.993" height="315" filterUnits="userSpaceOnUse" color-interpolation-filters="sRGB">
<feFlood flood-opacity="0" result="BackgroundImageFix"/>
<feColorMatrix in="SourceAlpha" type="matrix" values="0 0 0 0 0 0 0 0 0 0 0 0 0 0 0 0 0 0 127 0" result="hardAlpha"/>
<feOffset dx="2" dy="2"/>
<feGaussianBlur stdDeviation="2.5"/>
<feComposite in2="hardAlpha" operator="out"/>
<feColorMatrix type="matrix" values="0 0 0 0 0.396078 0 0 0 0 0.396078 0 0 0 0 0.396078 0 0 0 0.26 0"/>
<feBlend mode="normal" in2="BackgroundImageFix" result="effect1_dropShadow_0_14"/>
<feBlend mode="normal" in="SourceGraphic" in2="effect1_dropShadow_0_14" result="shape"/>
</filter>
<filter id="filter1_i_0_14" x="3" y="3" width="145.993" height="307" filterUnits="userSpaceOnUse" color-interpolation-filters="sRGB">
<feFlood flood-opacity="0" result="BackgroundImageFix"/>
<feBlend mode="normal" in="SourceGraphic" in2="BackgroundImageFix" result="shape"/>
<feColorMatrix in="SourceAlpha" type="matrix" values="0 0 0 0 0 0 0 0 0 0 0 0 0 0 0 0 0 0 127 0" result="hardAlpha"/>
<feOffset dx="3" dy="2"/>
<feGaussianBlur stdDeviation="2"/>
<feComposite in2="hardAlpha" operator="arithmetic" k2="-1" k3="1"/>
<feColorMatrix type="matrix" values="0 0 0 0 0.229774 0 0 0 0 0.185489 0 0 0 0 0.153857 0 0 0 0.4 0"/>
<feBlend mode="normal" in2="shape" result="effect1_innerShadow_0_14"/>
</filter>
</defs>
</svg>
