<svg preserveAspectRatio="none" width="100%" height="100%" overflow="visible" style="display: block;" viewBox="0 0 152.993 315" fill="none" xmlns="http://www.w3.org/2000/svg">
<g id="Group 25" filter="url(#filter0_d_0_25)">
<g id="Vector" filter="url(#filter1_i_0_25)">
<path d="M8.5 46.2695C8.50024 36.3287 16.5591 28.2696 26.5 28.2695H26.9189C26.9192 21.4319 32.4622 15.8889 39.2998 15.8887H56.7354C62.3398 10.8279 70.4036 6.50004 79.3662 6.5C88.3286 6.5 96.3926 10.8281 101.997 15.8887H119.693C126.531 15.8887 132.074 21.4318 132.074 28.2695H132.493C142.434 28.2695 150.493 36.3286 150.493 46.2695V270.729C150.493 280.671 142.434 288.729 132.493 288.729H132.074C132.074 295.567 126.531 301.11 119.693 301.11H101.997C96.3926 306.171 88.3286 310.5 79.3662 310.5C70.4036 310.5 62.3398 306.171 56.7354 301.11H39.2998C32.4621 301.11 26.9189 295.567 26.9189 288.729H26.5C16.5589 288.729 8.5 280.671 8.5 270.729V46.2695Z" fill="#FFFBF8"/>
<path d="M149.993 46.2695C149.993 36.6047 142.158 28.7695 132.493 28.7695H131.574V28.2695C131.574 21.7079 126.255 16.3887 119.693 16.3887H101.805L101.662 16.2598C96.1195 11.2551 88.1696 7 79.3662 7C70.5627 7.00004 62.6129 11.2549 57.0703 16.2598L56.9277 16.3887H39.2998C32.7383 16.3889 27.4192 21.7081 27.4189 28.2695V28.7695H26.5C16.8352 28.7696 9.00024 36.6048 9 46.2695V270.729C9 280.394 16.8351 288.229 26.5 288.229H27.4189V288.729C27.4189 295.291 32.7382 300.61 39.2998 300.61H56.9277L57.0703 300.739C62.6129 305.744 70.5626 310 79.3662 310C88.1695 310 96.1195 305.744 101.662 300.739L101.805 300.61H119.693C126.255 300.61 131.574 295.291 131.574 288.729V288.229H132.493C142.158 288.229 149.993 280.394 149.993 270.729V46.2695ZM150.993 270.729C150.993 280.923 142.748 289.191 132.563 289.229C132.301 296.111 126.64 301.61 119.693 301.61H102.187C96.5262 306.671 88.4104 311 79.3662 311C70.3218 311 62.2063 306.671 56.5459 301.61H39.2998C32.353 301.61 26.6909 296.111 26.4287 289.229C16.2443 289.19 8 280.923 8 270.729V46.2695C8.00025 36.0763 16.2444 27.808 26.4287 27.7695C26.6916 20.8875 32.3535 15.3889 39.2998 15.3887H56.5459C62.2063 10.3277 70.3219 6.00004 79.3662 6C88.4103 6 96.5261 10.3279 102.187 15.3887H119.693C126.64 15.3887 132.301 20.8874 132.563 27.7695C142.748 27.8074 150.993 36.0759 150.993 46.2695V270.729Z" fill="var(--fill-0, #B09D90)"/>
<path d="M79.3755 11.4321C87.6797 11.4321 95.1513 15.6198 100.344 20.5161H118.627C123.598 20.5161 127.627 24.5456 127.627 29.5161V32.4956H129.992C138.828 32.4956 145.992 39.6591 145.992 48.4956V268.504C145.992 277.341 138.828 284.504 129.992 284.504H127.627V287.484C127.627 292.454 123.598 296.484 118.627 296.484H100.344C95.1513 301.38 87.6797 305.568 79.3755 305.568C71.0711 305.568 63.5996 301.38 58.4067 296.484H40.3657C35.3952 296.484 31.3658 292.454 31.3657 287.484V284.504H29.0005C20.1641 284.504 13.0006 277.341 13.0005 268.504V48.4956C13.0006 39.6592 20.1641 32.4958 29.0005 32.4956H31.3657V29.5161C31.3658 24.5456 35.3952 20.5161 40.3657 20.5161H58.4067C63.5996 15.6196 71.0711 11.4321 79.3755 11.4321Z" fill="#FFFBF8"/>
<path d="M127.377 29.5161C127.377 24.6837 123.46 20.7661 118.627 20.7661H100.245L100.172 20.6978C95.0095 15.8298 87.5963 11.6821 79.3755 11.6821C71.1545 11.6821 63.7415 15.8297 58.5786 20.6978L58.5063 20.7661H40.3657C35.5333 20.7661 31.6158 24.6837 31.6157 29.5161V32.7456H29.0005C20.3022 32.7458 13.2506 39.7973 13.2505 48.4956V268.504C13.2506 277.203 20.3022 284.254 29.0005 284.254H31.6157V287.484C31.6158 292.316 35.5333 296.234 40.3657 296.234H58.5063L58.5786 296.302C63.7415 301.17 71.1545 305.318 79.3755 305.318C87.5964 305.318 95.0095 301.17 100.172 296.302L100.245 296.234H118.627C123.46 296.234 127.377 292.316 127.377 287.484V284.254H129.992C138.69 284.254 145.742 277.203 145.742 268.504V48.4956C145.742 39.7972 138.69 32.7456 129.992 32.7456H127.377V29.5161ZM127.877 32.2456H129.992C138.966 32.2456 146.242 39.521 146.242 48.4956V268.504C146.242 277.479 138.966 284.754 129.992 284.754H127.877V287.484C127.877 292.592 123.736 296.734 118.627 296.734H100.442C95.222 301.629 87.7239 305.818 79.3755 305.818C71.027 305.818 63.529 301.629 58.3091 296.734H40.3657C35.2571 296.734 31.1158 292.592 31.1157 287.484V284.754H29.0005C20.0261 284.754 12.7506 277.479 12.7505 268.504V48.4956C12.7506 39.5211 20.0261 32.2458 29.0005 32.2456H31.1157V29.5161C31.1158 24.4076 35.2571 20.2661 40.3657 20.2661H58.3091C63.529 15.3708 71.027 11.1821 79.3755 11.1821C87.7239 11.1821 95.222 15.371 100.442 20.2661H118.627C123.736 20.2661 127.877 24.4076 127.877 29.5161V32.2456Z" fill="var(--fill-0, #B09D90)"/>
</g>
</g>
<defs>
<filter id="filter0_d_0_25" x="0" y="0" width="152.993" height="315" filterUnits="userSpaceOnUse" color-interpolation-filters="sRGB">
<feFlood flood-opacity="0" result="BackgroundImageFix"/>
<feColorMatrix in="SourceAlpha" type="matrix" values="0 0 0 0 0 0 0 0 0 0 0 0 0 0 0 0 0 0 127 0" result="hardAlpha"/>
<feOffset dx="-3" dy="-1"/>
<feGaussianBlur stdDeviation="2.5"/>
<feComposite in2="hardAlpha" operator="out"/>
<feColorMatrix type="matrix" values="0 0 0 0 0.396078 0 0 0 0 0.396078 0 0 0 0 0.396078 0 0 0 0.2 0"/>
<feBlend mode="normal" in2="BackgroundImageFix" result="effect1_dropShadow_0_25"/>
<feBlend mode="normal" in="SourceGraphic" in2="effect1_dropShadow_0_25" result="shape"/>
</filter>
<filter id="filter1_i_0_25" x="6.5" y="4.5" width="144.493" height="306.5" filterUnits="userSpaceOnUse" color-interpolation-filters="sRGB">
<feFlood flood-opacity="0" result="BackgroundImageFix"/>
<feBlend mode="normal" in="SourceGraphic" in2="BackgroundImageFix" result="shape"/>
<feColorMatrix in="SourceAlpha" type="matrix" values="0 0 0 0 0 0 0 0 0 0 0 0 0 0 0 0 0 0 127 0" result="hardAlpha"/>
<feOffset dx="-2" dy="-2"/>
<feGaussianBlur stdDeviation="0.75"/>
<feComposite in2="hardAlpha" operator="arithmetic" k2="-1" k3="1"/>
<feColorMatrix type="matrix" values="0 0 0 0 0.396078 0 0 0 0 0.396078 0 0 0 0 0.396078 0 0 0 0.3 0"/>
<feBlend mode="normal" in2="shape" result="effect1_innerShadow_0_25"/>
</filter>
</defs>
</svg>
