<svg xmlns="http://www.w3.org/2000/svg" width="24.516" height="24" viewBox="0 0 24.516 24" fill="none">
  <path d="M 7.901 1.839 L 16.614 1.839 L 16.614 0 L 19.908 0 L 19.908 1.839 L 24.137 1.839 L 24.137 3.911 L 20.22 3.911 L 20.22 4.979 L 24.137 4.979 L 24.137 7.124 L 20.22 7.124 L 20.22 7.859 L 23.916 7.859 L 23.916 13.545 L 20.22 13.545 L 20.22 14.493 L 24.516 14.493 L 24.516 17.304 L 20.22 17.304 L 20.22 18.157 L 24.137 18.157 L 24.137 24 L 13.177 24 L 13.177 18.157 L 16.809 18.157 L 16.809 17.304 L 13.177 17.304 L 13.177 14.493 L 16.809 14.493 L 16.809 13.545 L 13.177 13.545 L 13.177 7.859 L 16.614 7.859 L 16.614 7.124 L 7.901 7.124 L 7.901 7.859 L 11.339 7.859 L 11.339 13.545 L 7.707 13.545 L 7.707 14.493 L 11.339 14.493 L 11.339 17.304 L 7.707 17.304 L 7.707 18.157 L 11.339 18.157 L 11.339 24 L 0.379 24 L 0.379 18.157 L 4.296 18.157 L 4.296 17.304 L 0 17.304 L 0 14.493 L 4.296 14.493 L 4.296 13.545 L 0.6 13.545 L 0.6 7.859 L 4.296 7.859 L 4.296 7.124 L 0.379 7.124 L 0.379 4.979 L 4.296 4.979 L 4.296 3.911 L 0.379 3.911 L 0.379 1.839 L 4.607 1.839 L 4.607 0 L 7.901 0 L 7.901 1.839 Z M 3.369 21.69 L 8.628 21.69 L 8.628 20.407 L 3.369 20.407 L 3.369 21.69 Z M 15.888 20.407 L 15.888 21.69 L 21.146 21.69 L 21.146 20.407 L 15.888 20.407 Z M 3.369 11.348 L 8.628 11.348 L 8.628 10.064 L 3.369 10.064 L 3.369 11.348 Z M 15.888 10.064 L 15.888 11.348 L 21.146 11.348 L 21.146 10.064 L 15.888 10.064 Z M 7.901 4.06 L 7.901 4.979 L 16.614 4.979 L 16.614 4.06 L 7.901 4.06 Z" fill="rgb(176,157,144)" fill-rule="nonzero"></path>
</svg>