<svg preserveAspectRatio="none" width="100%" height="100%" overflow="visible" style="display: block;" viewBox="0 0 15.792 14.2255" fill="none" xmlns="http://www.w3.org/2000/svg">
<g id="map">
<path id="vector" fill-rule="evenodd" clip-rule="evenodd" d="M15.2549 0.0212533C15.3788 -0.0198543 15.5155 -0.000658096 15.6211 0.0730111C15.7277 0.147577 15.792 0.26924 15.792 0.399183V11.6336C15.792 11.8001 15.6864 11.9474 15.5312 12.0066L10.4443 13.9246L10.4434 13.9226L10.4395 13.9236L10.4404 13.9256C10.4375 13.9266 10.4336 13.9265 10.4307 13.9275L10.4277 13.9295H10.4229C10.3836 13.942 10.3418 13.9509 10.2979 13.9509C10.2744 13.9509 10.25 13.9496 10.2256 13.9451L5.50293 13.1365L0.495117 14.2166C0.467218 14.2222 0.436491 14.2254 0.407227 14.2254C0.316661 14.2253 0.227289 14.1953 0.154297 14.1384C0.0578512 14.0634 0.000143922 13.9495 0 13.8269V2.04274C4.59345e-05 1.85314 0.135577 1.6941 0.319336 1.65407L5.40625 0.557386C5.45819 0.546595 5.50994 0.552937 5.53418 0.555433C5.54364 0.554729 5.56391 0.553052 5.58691 0.558363L10.2783 1.62868L15.2549 0.0212533ZM10.4072 13.9324H10.4092L10.4121 13.9314C10.4099 13.9317 10.4072 13.9324 10.4072 13.9324ZM0.81543 2.36207V13.3289L5.08594 12.4089V1.44215L0.81543 2.36207ZM5.90137 12.3953L9.89062 13.0769V2.35914L5.90137 1.44801V12.3953ZM10.7051 2.33082V12.9705L14.9766 11.3601V0.949964L10.7051 2.33082Z" fill="var(--fill-0, #78695D)"/>
</g>
</svg>
