<svg preserveAspectRatio="none" width="100%" height="100%" overflow="visible" style="display: block;" viewBox="0 0 14.25 14.25" fill="none" xmlns="http://www.w3.org/2000/svg">
<g id="timeline">
<g id="vector">
<path d="M7.125 2.62402C7.32346 2.62409 7.48333 2.78612 7.4834 2.9834V7.25293L9.85254 8.62109L9.91113 8.66406C10.036 8.77483 10.0698 8.96143 9.9834 9.11133C9.88439 9.28248 9.66533 9.3416 9.49414 9.24316L6.7666 7.66797V2.9834C6.76667 2.78612 6.92653 2.62409 7.125 2.62402Z" fill="var(--fill-0, #78695D)"/>
<path fill-rule="evenodd" clip-rule="evenodd" d="M7.125 0C11.0538 0 14.25 3.19616 14.25 7.125C14.25 11.0538 11.0538 14.25 7.125 14.25C3.19616 14.25 0 11.0538 0 7.125C0 3.19616 3.19616 0 7.125 0ZM7.125 0.716797C3.5916 0.716797 0.716797 3.5916 0.716797 7.125C0.716797 10.6584 3.5916 13.5332 7.125 13.5332C10.6584 13.5332 13.5332 10.6584 13.5332 7.125C13.5332 3.5916 10.6584 0.716797 7.125 0.716797Z" fill="var(--fill-0, #78695D)"/>
</g>
</g>
</svg>
