<svg xmlns="http://www.w3.org/2000/svg" width="72.080" height="69.668" viewBox="0 0 72.080 69.668" fill="none">
  <path d="M 50.108 0.261 C 53.54 0.261 52.396 4.335 50.737 9.87 L 47.06 20.969 C 51.378 20.969 52.687 20.969 53.476 20.266 L 56.744 10.497 C 58.575 4.335 59.719 0.261 63.152 0.261 L 63.266 0 L 50.222 0 L 50.108 0.261 Z" fill="rgb(120,105,93)" fill-rule="nonzero"></path>
  <path d="M 24.592 45.696 C 21.159 45.696 22.36 41.623 24.019 36.087 L 31.514 10.497 C 33.345 4.335 34.489 0.261 37.922 0.261 L 38.036 0 L 24.992 0 L 24.878 0.261 C 28.31 0.261 27.166 4.335 25.507 9.87 L 17.841 36.087 L 17.813 36.18 C 16.168 41.668 14.961 45.696 11.548 45.696 L 11.49 45.957 L 24.534 45.957 L 24.592 45.696 Z" fill="rgb(120,105,93)" fill-rule="nonzero"></path>
  <path d="M 26.714 20.962 L 50.029 20.962 L 49.95 20.701 L 26.872 20.701 L 26.714 20.962 Z" fill="rgb(120,105,93)" fill-rule="nonzero"></path>
  <path d="M 17.17 40.533 L 21.876 26.125 C 22.894 23.083 23.632 20.845 21.524 20.845 L 16.502 20.845 C 6.634 20.845 -3.234 45.814 9.83 45.814 L 13.342 45.814 C 15.449 45.814 16.151 43.575 17.17 40.533 Z M 16.538 20.701 L 29.567 20.701 L 29.531 20.845 C 27.424 20.845 26.687 23.083 25.668 26.125 L 20.962 40.533 C 19.944 43.575 19.242 45.814 21.349 45.814 L 21.279 45.957 L 9.76 45.957 C -8.256 45.957 1.436 20.701 16.538 20.701 Z" fill="rgb(120,105,93)" fill-rule="nonzero"></path>
  <path d="M 58.399 23.24 C 36.888 23.24 22.356 67.63 47.529 67.944 C 49.76 67.944 52.106 67.578 54.28 66.847 L 57.312 56.559 C 59.944 47.681 55.825 46.949 52.392 46.949 L 52.449 46.688 L 69.841 46.688 L 69.784 46.949 C 66.351 46.949 65.15 51.023 63.491 56.559 L 61.603 62.982 C 57.426 67.317 50.847 69.719 44.554 69.667 C 14.347 69.51 29.279 22.979 58.513 22.979 C 65.836 22.979 70.127 27.104 71.557 30.238 C 73.388 34.259 70.013 36.609 67.553 36.609 C 65.836 36.609 64.578 35.46 65.722 33.058 C 68.525 27.157 65.722 23.24 58.399 23.24 Z" fill="rgb(120,105,93)" fill-rule="nonzero"></path>
</svg>