<svg preserveAspectRatio="none" width="100%" height="100%" overflow="visible" style="display: block;" viewBox="0 0 116.114 128.344" fill="none" xmlns="http://www.w3.org/2000/svg">
<g id="logo">
<g id="Vector" filter="url(#filter0_d_0_4)">
<path d="M66.9899 40.3573C69.5807 40.3573 68.7171 43.4318 67.4649 47.61L64.6895 55.9868C67.9487 55.9868 68.9367 55.9868 69.5321 55.4564L71.9988 48.083C73.3806 43.4318 74.2442 40.3573 76.835 40.3573L76.9214 40.1602H67.0763L66.9899 40.3573Z" fill="var(--fill-0, #78695D)"/>
<path d="M47.7314 74.6499C45.1406 74.6499 46.0474 71.5754 47.2996 67.3972L52.9563 48.083C54.3381 43.4318 55.2017 40.3573 57.7925 40.3573L57.8788 40.1602H48.0337L47.9473 40.3573C50.5381 40.3573 49.6745 43.4318 48.4223 47.61L42.6361 67.3972L42.6151 67.4673C41.3737 71.6097 40.4626 74.6499 37.8863 74.6499L37.8431 74.8469H47.6882L47.7314 74.6499Z" fill="var(--fill-0, #78695D)"/>
<path d="M49.3336 55.9818H66.9305L66.8707 55.7847H49.4529L49.3336 55.9818Z" fill="var(--fill-0, #78695D)"/>
<path d="M42.1296 70.7529L45.6815 59.8786C46.4502 57.5826 47.0068 55.893 45.4164 55.893H41.626C34.1778 55.893 26.7295 74.7385 36.5898 74.7385H39.2405C40.8308 74.7385 41.361 73.049 42.1296 70.7529ZM41.6525 55.7847H51.4864L51.4599 55.893C49.8695 55.893 49.3128 57.5826 48.5441 59.8786L44.9923 70.7529C44.2236 73.049 43.6935 74.7385 45.2839 74.7385L45.2309 74.8469H36.5368C22.9391 74.8469 30.2548 55.7847 41.6525 55.7847Z" fill="var(--fill-0, #78695D)"/>
<path d="M73.248 57.7007C57.0122 57.7007 46.0444 91.2049 65.0438 91.4414C66.7278 91.4414 68.4982 91.1655 70.139 90.6136L72.4276 82.8485C74.4139 76.1477 71.3049 75.5959 68.7141 75.5959L68.7573 75.3988H81.8841L81.8409 75.5959C79.2501 75.5959 78.3433 78.6704 77.0911 82.8485L75.6661 87.6968C72.514 90.9684 67.5482 92.7816 62.7984 92.7422C39.9992 92.6239 51.2692 57.5036 73.3344 57.5036C78.8615 57.5036 82.1 60.6175 83.1795 62.9825C84.5613 66.0176 82.0136 67.7913 80.1569 67.7913C78.8615 67.7913 77.9115 66.9242 78.7751 65.111C80.8909 60.6569 78.7751 57.7007 73.248 57.7007Z" fill="var(--fill-0, #78695D)"/>
</g>
<ellipse id="Ellipse 1" cx="45.9942" cy="54.2508" rx="45.9942" ry="54.2508" transform="matrix(0.988401 0.151869 -0.170044 0.985436 21.8215 3.72647)" stroke="var(--stroke-0, #78695D)" stroke-width="0.75" stroke-miterlimit="1.40203" stroke-linecap="round" stroke-linejoin="round" stroke-dasharray="0.1 3"/>
<ellipse id="Ellipse 2" cx="48.8297" cy="57.5953" rx="48.8297" ry="57.5953" transform="matrix(0.988401 0.151869 -0.170044 0.985436 19.5875 8.04663e-07)" stroke="var(--stroke-0, #78695D)" stroke-width="1.5"/>
<g id="Ellipse 3">
<g filter="url(#filter1_ii_0_4)">
<ellipse cx="43.9984" cy="51.8967" rx="43.9984" ry="51.8967" transform="matrix(0.988401 0.151869 -0.170044 0.985436 23.3938 6.34939)" fill="var(--fill-0, #BAAA9F)" fill-opacity="0.01"/>
</g>
<path d="M66.839 13.2777C90.6836 16.9414 106.155 42.6682 101.298 70.8161C96.4412 98.9641 73.1192 118.73 49.2746 115.066C25.4302 111.402 9.95909 85.6759 14.8162 57.528C19.6734 29.3803 42.9945 9.61416 66.839 13.2777Z" stroke="var(--stroke-0, #78695D)" stroke-width="0.5"/>
</g>
</g>
<defs>
<filter id="filter0_d_0_4" x="28.3706" y="38.3602" width="58.0034" height="56.1826" filterUnits="userSpaceOnUse" color-interpolation-filters="sRGB">
<feFlood flood-opacity="0" result="BackgroundImageFix"/>
<feColorMatrix in="SourceAlpha" type="matrix" values="0 0 0 0 0 0 0 0 0 0 0 0 0 0 0 0 0 0 127 0" result="hardAlpha"/>
<feOffset dx="1"/>
<feGaussianBlur stdDeviation="0.9"/>
<feComposite in2="hardAlpha" operator="out"/>
<feColorMatrix type="matrix" values="0 0 0 0 0 0 0 0 0 0 0 0 0 0 0 0 0 0 0.25 0"/>
<feBlend mode="normal" in2="BackgroundImageFix" result="effect1_dropShadow_0_4"/>
<feBlend mode="normal" in="SourceGraphic" in2="effect1_dropShadow_0_4" result="shape"/>
</filter>
<filter id="filter1_ii_0_4" x="12.674" y="12.5909" width="90.2661" height="104.163" filterUnits="userSpaceOnUse" color-interpolation-filters="sRGB">
<feFlood flood-opacity="0" result="BackgroundImageFix"/>
<feBlend mode="normal" in="SourceGraphic" in2="BackgroundImageFix" result="shape"/>
<feColorMatrix in="SourceAlpha" type="matrix" values="0 0 0 0 0 0 0 0 0 0 0 0 0 0 0 0 0 0 127 0" result="hardAlpha"/>
<feOffset dx="-1" dy="1"/>
<feGaussianBlur stdDeviation="1.3"/>
<feComposite in2="hardAlpha" operator="arithmetic" k2="-1" k3="1"/>
<feColorMatrix type="matrix" values="0 0 0 0 0 0 0 0 0 0 0 0 0 0 0 0 0 0 0.25 0"/>
<feBlend mode="normal" in2="shape" result="effect1_innerShadow_0_4"/>
<feColorMatrix in="SourceAlpha" type="matrix" values="0 0 0 0 0 0 0 0 0 0 0 0 0 0 0 0 0 0 127 0" result="hardAlpha"/>
<feOffset dx="0.5"/>
<feGaussianBlur stdDeviation="2.6"/>
<feComposite in2="hardAlpha" operator="arithmetic" k2="-1" k3="1"/>
<feColorMatrix type="matrix" values="0 0 0 0 0 0 0 0 0 0 0 0 0 0 0 0 0 0 0.25 0"/>
<feBlend mode="normal" in2="effect1_innerShadow_0_4" result="effect2_innerShadow_0_4"/>
</filter>
</defs>
</svg>
