<svg preserveAspectRatio="none" width="100%" height="100%" overflow="visible" style="display: block;" viewBox="0 0 123.667 2.66667" fill="none" xmlns="http://www.w3.org/2000/svg">
<path id="Line 3" d="M0 1.33333C0 2.06971 0.596954 2.66667 1.33333 2.66667C2.06971 2.66667 2.66667 2.06971 2.66667 1.33333C2.66667 0.596954 2.06971 0 1.33333 0C0.596954 0 0 0.596954 0 1.33333ZM121 1.33333C121 2.06971 121.597 2.66667 122.333 2.66667C123.07 2.66667 123.667 2.06971 123.667 1.33333C123.667 0.596954 123.07 0 122.333 0C121.597 0 121 0.596954 121 1.33333ZM1.33333 1.33333V1.58333H122.333V1.33333V1.08333H1.33333V1.33333Z" fill="var(--stroke-0, #78695D)"/>
</svg>
